<svg xmlns="http://www.w3.org/2000/svg" xmlns:xlink="http://www.w3.org/1999/xlink" height="870" width="710" version="1.1" preserveAspectRatio="xMidYMid">
<path d="M 115 260 Q 110 257, 113 252 Q 111 250, 107 252 Q 108 247, 103 244 L 100 232 Q 96 225, 92 230 L 87 225, 84 208 C 70 210, 79 190, 70 186 Q 73 182 71 179 Q 77 176 76 169 L 76 163 C 72 162 67 153 61 158 Q 60 152 52 154 Q 54 150 51 149 C 57 147 53 143 48 143 L 48 145 C 44 145 50 137 43 134 C 45 127 41 126 42 118 L 36 116 145 11 Q 142 15 144 16 L 147 21 C 150 24 158 12 161 15 C 165 15 173 22 177 17 L 189 24 C 185 31 191 39 185 44 L 184 68 199 84 200 92 208 98 226 98 229 99 258 98 260 99 277 99 287 104 292 104 Q 292 107 297 107 Q 297 112 300 112 L 373 159 Q 375 164 380 166 L 383 168 C 397 165 412 171 414 168 L 417 165 420 168 429 169 C 434 173 443 172 448 176 Q 451 177 453 175 C 459 177 466 173 467 176 L 473 180 Q 478 180 481 179 Q 484 175 484 180 L 494 181 C 499 181 498 187 502 185 C 506 185 503 177 512 171 C 516 165 524 164 525 154 L 529 147 557 132 560 132 573 128 574 124 601 114 606 111 613 116 Q 615 123 623 124 Q 631 137 640 140 L 655 140 C 664 141 666 136 671 138 C 676 135 680 140 685 135 Q 695 140 700 136 L 655 201 623 233 623 543 669 600 Q 670 605 669 612 L 661 622 651 632 C 647 631 645 633 643 631 C 641 637 634 633 630 637 C 627 639 623 636 621 642 C 617 637 614 642 617 644 Q 628 655 621 655 Q 623 659 617 658 C 615 654 605 661 607 666 C 610 667 606 674 600 675 Q 594 683 585 679 C 576 681 557 694 555 701 C 557 704 553 714 558 721 C 554 723 554 731 551 735 Q 552 742 542 747 L 540 751 Q 537 750 538 754 L 532 764 532 769 Q 526 773 529 775 C 531 776 524 790 523 797 L 519 799 Q 514 794 516 802 L 519 802 515 808 513 806 513 803 510 803 Q 513 804 508 806 C 503 806 504 812 507 810 C 515 809 505 824 504 833 C 502 841 497 839 497 844 L 496 850 494 847 492 850 C 487 852 491 856 489 856 Q 485 857 483 854 L 478 854 473 860 354 775 351 765 347 763 340 763 C 343 758 334 757 339 753 C 343 751 347 752 346 747 L 349 747 345 725 40 555 L 42 554 38 552 31 551 Q 27 528 32 510 L 35 480 29 461 42 444 Q 49 439 45 436 C 42 433 49 432 47 425 L 52 416 C 66 410 59 405 67 403 L 72 397 77 392 79 387 76 383 81 376 Q 86 380 86 375 C 86 370 92 372 94 369 C 105 370 110 363 104 355 L 111 349 110 343 113 338 117 339 121 330 120 313 Q 126 308 120 305 L 119 299 120 293 112 274 C 105 270 119 262 116 259 z" fill="green" stroke="red" stroke-width="1" >
        
    </path>
</svg>