<?xml version="1.0" encoding="utf-8"?>
<!-- Generator: Adobe Illustrator 27.5.0, SVG Export Plug-In . SVG Version: 6.00 Build 0)  -->
<svg version="1.1" xmlns="http://www.w3.org/2000/svg" xmlns:xlink="http://www.w3.org/1999/xlink" x="0px" y="0px"
	 viewBox="0 0 750 500" style="enable-background:new 0 0 750 500;" xml:space="preserve">
<g id="BACKGROUND">
	<g>
		<radialGradient id="SVGID_1_" cx="369" cy="250" r="296.6686" gradientUnits="userSpaceOnUse">
			<stop  offset="0" style="stop-color:#3F3E3E"/>
			<stop  offset="0.1173" style="stop-color:#3A3939"/>
			<stop  offset="0.5803" style="stop-color:#2C2929"/>
			<stop  offset="0.9393" style="stop-color:#272324"/>
		</radialGradient>
		<rect style="fill:url(#SVGID_1_);" width="750" height="500"/>
		<g>
			<circle style="fill:#FFFFFF;" cx="646.335" cy="103.176" r="5.146"/>
			<circle style="fill:#F9A62D;" cx="439.668" cy="40.026" r="5.146"/>
			<circle style="fill:#FFFFFF;" cx="243.646" cy="123.487" r="5.145"/>
			<path style="fill:#FFFFFF;" d="M677.028,258.331c0,2.842-2.304,5.146-5.146,5.146s-5.146-2.304-5.146-5.146
				c0-2.842,2.304-5.146,5.146-5.146S677.028,255.489,677.028,258.331z"/>
			<path style="fill:#F9A62D;" d="M58.813,76.929c0,2.842-2.304,5.144-5.145,5.144c-2.842,0-5.146-2.303-5.146-5.144
				c0-2.842,2.304-5.146,5.146-5.146C56.51,71.783,58.813,74.087,58.813,76.929z"/>
			<circle style="fill:#FFFFFF;" cx="92.801" cy="333.314" r="5.145"/>
			<path style="fill:#FFFFFF;" d="M644.276,190.845c0,1.704-1.382,3.087-3.087,3.087c-1.705,0-3.087-1.383-3.087-3.087
				c0-1.705,1.382-3.088,3.087-3.088C642.894,187.757,644.276,189.14,644.276,190.845z"/>
			<path style="fill:#F9A62D;" d="M529.142,173.694c0,1.704-1.382,3.086-3.087,3.086c-1.705,0-3.087-1.382-3.087-3.086
				c0-1.705,1.382-3.088,3.087-3.088C527.76,170.606,529.142,171.989,529.142,173.694z"/>
			<path style="fill:#FFFFFF;" d="M417.969,82.908c0,1.705-1.382,3.087-3.087,3.087c-1.705,0-3.087-1.382-3.087-3.087
				c0-1.705,1.382-3.087,3.087-3.087C416.587,79.821,417.969,81.203,417.969,82.908z"/>
			<circle style="fill:#FFFFFF;" cx="175.317" cy="40.026" r="3.087"/>
			<path style="fill:#FFFFFF;" d="M64.987,187.758c0,1.704-1.382,3.086-3.087,3.086c-1.705,0-3.087-1.382-3.087-3.086
				c0-1.705,1.382-3.088,3.087-3.088C63.605,184.67,64.987,186.053,64.987,187.758z"/>
			<path style="fill:#F9A62D;" d="M165.842,197.019c0,1.704-1.382,3.087-3.087,3.087c-1.705,0-3.087-1.383-3.087-3.087
				c0-1.705,1.382-3.087,3.087-3.087C164.46,193.932,165.842,195.314,165.842,197.019z"/>
			<path style="fill:#F9A62D;" d="M111.29,406.693c0,1.705-1.382,3.087-3.087,3.087c-1.705,0-3.087-1.382-3.087-3.087
				c0-1.705,1.382-3.087,3.087-3.087C109.908,403.606,111.29,404.988,111.29,406.693z"/>
			<path style="fill:#FFFFFF;" d="M213.502,346.61c0,1.704-1.382,3.087-3.087,3.087c-1.705,0-3.087-1.383-3.087-3.087
				c0-1.705,1.382-3.087,3.087-3.087C212.12,343.523,213.502,344.905,213.502,346.61z"/>
			<circle style="fill:#FFFFFF;" cx="529.142" cy="343.247" r="3.087"/>
			<path style="fill:#FFFFFF;" d="M641.19,412.867c0,1.705-1.382,3.087-3.087,3.087c-1.705,0-3.087-1.382-3.087-3.087
				c0-1.705,1.382-3.087,3.087-3.087C639.808,409.78,641.19,411.162,641.19,412.867z"/>
			<path style="fill:#F9A62D;" d="M644.276,343.247c0,1.704-1.382,3.087-3.087,3.087c-1.705,0-3.087-1.383-3.087-3.087
				c0-1.705,1.382-3.087,3.087-3.087C642.894,340.16,644.276,341.542,644.276,343.247z"/>
			<path style="fill:#F9A62D;" d="M701.422,142.376c0,1.704-1.382,3.086-3.087,3.086c-1.705,0-3.087-1.382-3.087-3.086
				c0-1.705,1.382-3.088,3.087-3.088C700.04,139.288,701.422,140.671,701.422,142.376z"/>
			<path style="fill:#F9A62D;" d="M75.422,267.842c0,1.705-1.382,3.087-3.087,3.087c-1.705,0-3.087-1.382-3.087-3.087
				s1.382-3.087,3.087-3.087C74.04,264.755,75.422,266.137,75.422,267.842z"/>
			<g>
				<g>
					<g>
						<path style="fill:#FFFFFF;" d="M604.469,217.852c-0.375-0.611-0.182-1.409,0.429-1.784l13.633-8.351
							c0.612-0.373,1.41-0.182,1.783,0.428c0.375,0.613,0.183,1.412-0.428,1.787l-13.633,8.349
							C605.643,218.655,604.844,218.463,604.469,217.852z"/>
					</g>
					<g>
						<path style="fill:#FFFFFF;" d="M611.398,213.607c-0.18-0.291-0.243-0.651-0.149-1.008c0.183-0.692,0.894-1.105,1.586-0.923
							l3.59,0.948c0.694,0.184,1.107,0.894,0.923,1.586c-0.184,0.692-0.893,1.105-1.584,0.923l-3.592-0.948
							C611.836,214.096,611.565,213.883,611.398,213.607z"/>
					</g>
					<g>
						<path style="fill:#FFFFFF;" d="M611.398,213.607c-0.17-0.275-0.236-0.611-0.162-0.951l0.785-3.629
							c0.152-0.699,0.844-1.146,1.543-0.994c0.7,0.15,1.146,0.84,0.993,1.543l-0.786,3.629c-0.151,0.699-0.843,1.146-1.542,0.992
							C611.868,214.121,611.576,213.9,611.398,213.607z"/>
					</g>
				</g>
				<g>
					<g>
						<path style="fill:#FFFFFF;" d="M604.469,217.852c-0.113-0.189-0.184-0.408-0.19-0.645l-0.416-15.982
							c-0.018-0.716,0.548-1.311,1.264-1.332c0.718-0.018,1.313,0.549,1.331,1.266l0.415,15.98c0.018,0.717-0.547,1.313-1.264,1.332
							C605.131,218.482,604.705,218.232,604.469,217.852z"/>
					</g>
					<g>
						<path style="fill:#FFFFFF;" d="M604.259,209.727c-0.306-0.497-0.243-1.157,0.187-1.59l2.618-2.635
							c0.507-0.508,1.327-0.51,1.834-0.004c0.512,0.498,0.511,1.327,0.005,1.834l-2.617,2.633c-0.505,0.508-1.327,0.512-1.834,0.007
							C604.375,209.896,604.313,209.814,604.259,209.727z"/>
					</g>
					<g>
						<path style="fill:#FFFFFF;" d="M601.51,207.235c-0.294-0.479-0.251-1.112,0.145-1.55c0.48-0.53,1.302-0.569,1.833-0.088
							l2.749,2.492c0.527,0.476,0.57,1.302,0.089,1.834c-0.481,0.529-1.303,0.568-1.833,0.088l-2.749-2.494
							C601.652,207.434,601.573,207.337,601.51,207.235z"/>
					</g>
				</g>
				<g>
					<g>
						<path style="fill:#FFFFFF;" d="M590.423,210.221c-0.235-0.383-0.263-0.877-0.035-1.299c0.342-0.63,1.13-0.863,1.76-0.521
							l14.048,7.635c0.629,0.338,0.863,1.127,0.521,1.758c-0.343,0.629-1.131,0.862-1.759,0.521l-14.049-7.632
							C590.701,210.57,590.537,210.408,590.423,210.221z"/>
					</g>
					<g>
						<path style="fill:#FFFFFF;" d="M597.33,213.973c-0.063-0.104-0.112-0.216-0.146-0.339l-0.972-3.581
							c-0.188-0.691,0.222-1.404,0.913-1.592s1.402,0.219,1.593,0.912l0.971,3.583c0.188,0.688-0.221,1.403-0.912,1.591
							C598.206,214.701,597.623,214.452,597.33,213.973z"/>
					</g>
					<g>
						<path style="fill:#FFFFFF;" d="M593.797,215.108c-0.054-0.086-0.098-0.181-0.131-0.281c-0.218-0.683,0.157-1.413,0.839-1.632
							l3.534-1.137c0.683-0.217,1.415,0.158,1.633,0.84c0.219,0.682-0.156,1.412-0.839,1.631l-3.534,1.135
							C594.718,215.852,594.102,215.606,593.797,215.108z"/>
					</g>
				</g>
				<g>
					<g>
						<path style="fill:#FFFFFF;" d="M590.839,226.2c-0.375-0.61-0.183-1.409,0.428-1.784l13.632-8.349
							c0.611-0.375,1.41-0.183,1.785,0.429c0.373,0.611,0.181,1.41-0.431,1.784l-13.631,8.35
							C592.01,227.005,591.212,226.813,590.839,226.2z"/>
					</g>
					<g>
						<path style="fill:#FFFFFF;" d="M593.952,221.145c-0.179-0.291-0.241-0.65-0.146-1.008c0.183-0.691,0.892-1.105,1.585-0.922
							l3.59,0.947c0.695,0.185,1.105,0.893,0.923,1.586c-0.183,0.692-0.893,1.105-1.586,0.922l-3.59-0.947
							C594.391,221.633,594.122,221.421,593.952,221.145z"/>
					</g>
					<g>
						<path style="fill:#FFFFFF;" d="M596.757,225.723c-0.17-0.275-0.235-0.611-0.162-0.951l0.786-3.629
							c0.152-0.699,0.843-1.145,1.542-0.994c0.702,0.15,1.146,0.842,0.993,1.543l-0.785,3.63c-0.152,0.699-0.842,1.143-1.543,0.991
							C597.229,226.236,596.935,226.016,596.757,225.723z"/>
					</g>
				</g>
				<g>
					<g>
						<path style="fill:#FFFFFF;" d="M604.885,233.832c-0.114-0.188-0.184-0.407-0.191-0.643l-0.415-15.982
							c-0.018-0.717,0.547-1.313,1.264-1.331c0.717-0.019,1.313,0.548,1.33,1.263l0.416,15.983c0.017,0.716-0.547,1.311-1.265,1.33
							C605.546,234.463,605.119,234.215,604.885,233.832z"/>
					</g>
					<g>
						<path style="fill:#FFFFFF;" d="M602.065,228.607c-0.305-0.498-0.243-1.156,0.185-1.59l2.615-2.637
							c0.506-0.508,1.326-0.513,1.836-0.006c0.507,0.502,0.512,1.324,0.006,1.834l-2.615,2.637c-0.504,0.508-1.325,0.51-1.834,0.006
							C602.182,228.775,602.118,228.695,602.065,228.607z"/>
					</g>
					<g>
						<path style="fill:#FFFFFF;" d="M604.681,225.974c-0.294-0.48-0.251-1.112,0.145-1.551c0.481-0.529,1.303-0.569,1.832-0.089
							l2.751,2.496c0.531,0.48,0.57,1.303,0.089,1.833c-0.481,0.53-1.303,0.569-1.832,0.087l-2.751-2.495
							C604.821,226.17,604.742,226.076,604.681,225.974z"/>
					</g>
				</g>
				<g>
					<g>
						<path style="fill:#FFFFFF;" d="M604.472,217.852c-0.235-0.382-0.264-0.875-0.036-1.298c0.343-0.63,1.131-0.862,1.76-0.518
							l14.049,7.631c0.629,0.34,0.863,1.129,0.521,1.758c-0.342,0.631-1.13,0.863-1.761,0.521l-14.046-7.632
							C604.75,218.201,604.586,218.041,604.472,217.852z"/>
					</g>
					<g>
						<path style="fill:#FFFFFF;" d="M612.582,225.313c-0.063-0.102-0.112-0.215-0.144-0.336l-0.974-3.585
							c-0.188-0.692,0.221-1.405,0.912-1.593c0.69-0.188,1.401,0.216,1.591,0.911l0.974,3.585c0.188,0.691-0.221,1.404-0.912,1.592
							C613.459,226.042,612.875,225.793,612.582,225.313z"/>
					</g>
					<g>
						<path style="fill:#FFFFFF;" d="M611.611,221.73c-0.055-0.09-0.1-0.184-0.131-0.285c-0.219-0.681,0.156-1.41,0.839-1.629
							l3.538-1.133c0.684-0.219,1.411,0.159,1.632,0.84c0.218,0.682-0.157,1.412-0.84,1.631l-3.538,1.133
							C612.529,222.473,611.915,222.229,611.611,221.73z"/>
					</g>
				</g>
			</g>
			<g>
				<g>
					<g>
						<path style="fill:#FFFFFF;" d="M713.096,51.549c-0.553,0-1-0.447-1-1V38.225c0-0.553,0.447-1,1-1s1,0.447,1,1v12.324
							C714.096,51.102,713.648,51.549,713.096,51.549z"/>
					</g>
					<g>
						<path style="fill:#FFFFFF;" d="M713.096,45.286c-0.264,0-0.526-0.104-0.723-0.309c-0.382-0.399-0.367-1.032,0.031-1.413
							l2.069-1.979c0.4-0.382,1.033-0.367,1.414,0.031c0.382,0.399,0.367,1.032-0.031,1.414l-2.069,1.979
							C713.593,45.194,713.345,45.286,713.096,45.286z"/>
					</g>
					<g>
						<path style="fill:#FFFFFF;" d="M713.096,45.286c-0.249,0-0.497-0.092-0.691-0.277l-2.069-1.979
							c-0.398-0.382-0.413-1.015-0.031-1.414c0.381-0.399,1.013-0.414,1.414-0.031l2.069,1.979c0.398,0.381,0.413,1.015,0.031,1.413
							C713.622,45.183,713.359,45.286,713.096,45.286z"/>
					</g>
				</g>
				<g>
					<g>
						<path style="fill:#FFFFFF;" d="M713.095,51.548c-0.17,0-0.342-0.043-0.499-0.134l-10.674-6.162
							c-0.478-0.276-0.643-0.888-0.366-1.366c0.276-0.479,0.888-0.643,1.366-0.366l10.674,6.162
							c0.479,0.276,0.643,0.888,0.366,1.366C713.776,51.369,713.44,51.548,713.095,51.548z"/>
					</g>
					<g>
						<path style="fill:#FFFFFF;" d="M707.67,48.416c-0.45,0-0.859-0.306-0.971-0.764l-0.677-2.781
							c-0.131-0.537,0.198-1.078,0.735-1.208c0.534-0.135,1.077,0.198,1.208,0.735l0.677,2.781c0.131,0.537-0.198,1.078-0.735,1.208
							C707.828,48.407,707.748,48.416,707.67,48.416z"/>
					</g>
					<g>
						<path style="fill:#FFFFFF;" d="M704.925,49.22c-0.434,0-0.832-0.283-0.96-0.72c-0.155-0.53,0.15-1.085,0.68-1.24l2.746-0.804
							c0.524-0.155,1.085,0.149,1.24,0.68c0.155,0.53-0.15,1.085-0.68,1.24l-2.746,0.804
							C705.112,49.207,705.018,49.22,704.925,49.22z"/>
					</g>
				</g>
				<g>
					<g>
						<path style="fill:#FFFFFF;" d="M702.423,57.71c-0.346,0-0.682-0.179-0.867-0.5c-0.276-0.479-0.112-1.09,0.366-1.366
							l10.674-6.162c0.476-0.276,1.089-0.112,1.366,0.366c0.276,0.479,0.112,1.09-0.366,1.366l-10.674,6.162
							C702.765,57.667,702.593,57.71,702.423,57.71z"/>
					</g>
					<g>
						<path style="fill:#FFFFFF;" d="M707.671,54.681c-0.093,0-0.188-0.014-0.281-0.041l-2.746-0.804
							c-0.529-0.155-0.834-0.711-0.679-1.24c0.155-0.53,0.709-0.834,1.241-0.68l2.746,0.804c0.529,0.155,0.834,0.711,0.679,1.241
							C708.503,54.397,708.104,54.681,707.671,54.681z"/>
					</g>
					<g>
						<path style="fill:#FFFFFF;" d="M706.995,57.461c-0.078,0-0.158-0.009-0.237-0.028c-0.537-0.131-0.866-0.672-0.735-1.208
							l0.677-2.781c0.131-0.536,0.673-0.866,1.208-0.735c0.537,0.131,0.866,0.672,0.735,1.208l-0.677,2.781
							C707.854,57.154,707.445,57.461,706.995,57.461z"/>
					</g>
				</g>
				<g>
					<g>
						<path style="fill:#FFFFFF;" d="M713.096,63.872c-0.553,0-1-0.448-1-1V50.548c0-0.552,0.447-1,1-1s1,0.448,1,1v12.324
							C714.096,63.424,713.648,63.872,713.096,63.872z"/>
					</g>
					<g>
						<path style="fill:#FFFFFF;" d="M711.026,59.789c-0.264,0-0.526-0.104-0.723-0.31c-0.382-0.398-0.367-1.032,0.031-1.413
							l2.069-1.979c0.401-0.382,1.032-0.368,1.414,0.031c0.382,0.4,0.367,1.032-0.031,1.414l-2.069,1.979
							C711.523,59.697,711.275,59.789,711.026,59.789z"/>
					</g>
					<g>
						<path style="fill:#FFFFFF;" d="M715.165,59.789c-0.249,0-0.497-0.092-0.691-0.277l-2.069-1.979
							c-0.398-0.382-0.413-1.015-0.031-1.414c0.381-0.4,1.014-0.414,1.414-0.031l2.069,1.979c0.398,0.381,0.413,1.015,0.031,1.413
							C715.691,59.686,715.429,59.789,715.165,59.789z"/>
					</g>
				</g>
				<g>
					<g>
						<path style="fill:#FFFFFF;" d="M723.769,57.71c-0.17,0-0.342-0.043-0.499-0.134l-10.674-6.162
							c-0.479-0.276-0.643-0.888-0.366-1.366c0.276-0.479,0.889-0.643,1.366-0.366l10.674,6.162
							c0.479,0.276,0.643,0.888,0.366,1.366C724.45,57.531,724.114,57.71,723.769,57.71z"/>
					</g>
					<g>
						<path style="fill:#FFFFFF;" d="M719.198,57.461c-0.45,0-0.858-0.306-0.971-0.763l-0.68-2.781
							c-0.131-0.536,0.197-1.077,0.734-1.208c0.534-0.132,1.077,0.196,1.209,0.733l0.68,2.781c0.131,0.536-0.197,1.077-0.734,1.208
							C719.356,57.451,719.277,57.461,719.198,57.461z"/>
					</g>
					<g>
						<path style="fill:#FFFFFF;" d="M718.519,54.681c-0.434,0-0.832-0.283-0.96-0.72c-0.155-0.53,0.149-1.086,0.68-1.241
							l2.748-0.804c0.529-0.155,1.085,0.149,1.24,0.68c0.155,0.53-0.149,1.085-0.68,1.24L718.8,54.64
							C718.706,54.667,718.612,54.681,718.519,54.681z"/>
					</g>
				</g>
				<g>
					<g>
						<path style="fill:#FFFFFF;" d="M713.097,51.548c-0.346,0-0.682-0.179-0.867-0.5c-0.276-0.479-0.112-1.09,0.366-1.366
							l10.674-6.162c0.477-0.276,1.09-0.112,1.366,0.366c0.276,0.479,0.112,1.09-0.366,1.366l-10.674,6.162
							C713.438,51.505,713.267,51.548,713.097,51.548z"/>
					</g>
					<g>
						<path style="fill:#FFFFFF;" d="M721.268,49.22c-0.093,0-0.186-0.013-0.28-0.04l-2.748-0.804c-0.53-0.155-0.835-0.71-0.68-1.24
							c0.155-0.529,0.706-0.834,1.24-0.68l2.748,0.804c0.53,0.155,0.835,0.71,0.68,1.24C722.1,48.937,721.701,49.22,721.268,49.22z"
							/>
					</g>
					<g>
						<path style="fill:#FFFFFF;" d="M718.521,48.416c-0.079,0-0.158-0.009-0.238-0.028c-0.536-0.131-0.865-0.672-0.734-1.209
							l0.68-2.781c0.132-0.537,0.674-0.864,1.209-0.734c0.536,0.131,0.865,0.672,0.734,1.209l-0.68,2.781
							C719.379,48.11,718.971,48.416,718.521,48.416z"/>
					</g>
				</g>
			</g>
			<g>
				<g>
					<g>
						<path style="fill:#FFFFFF;" d="M343.649,75.449c-0.553,0-1-0.447-1-1V62.125c0-0.553,0.447-1,1-1c0.553,0,1,0.447,1,1v12.324
							C344.649,75.002,344.202,75.449,343.649,75.449z"/>
					</g>
					<g>
						<path style="fill:#FFFFFF;" d="M343.649,69.187c-0.264,0-0.526-0.104-0.723-0.31c-0.382-0.398-0.367-1.032,0.031-1.413
							l2.069-1.979c0.4-0.382,1.033-0.367,1.414,0.031c0.382,0.399,0.367,1.032-0.031,1.414l-2.069,1.979
							C344.147,69.095,343.898,69.187,343.649,69.187z"/>
					</g>
					<g>
						<path style="fill:#FFFFFF;" d="M343.649,69.187c-0.249,0-0.497-0.092-0.691-0.277l-2.069-1.979
							c-0.398-0.382-0.413-1.015-0.031-1.414c0.381-0.399,1.013-0.414,1.414-0.031l2.069,1.979c0.398,0.381,0.413,1.015,0.031,1.413
							C344.176,69.083,343.913,69.187,343.649,69.187z"/>
					</g>
				</g>
				<g>
					<g>
						<path style="fill:#FFFFFF;" d="M343.648,75.448c-0.17,0-0.342-0.043-0.499-0.134l-10.674-6.162
							c-0.478-0.276-0.643-0.888-0.366-1.366c0.276-0.479,0.888-0.643,1.366-0.366l10.674,6.162
							c0.478,0.276,0.643,0.888,0.366,1.366C344.33,75.27,343.994,75.448,343.648,75.448z"/>
					</g>
					<g>
						<path style="fill:#FFFFFF;" d="M338.224,72.316c-0.45,0-0.859-0.306-0.971-0.764l-0.677-2.781
							c-0.131-0.537,0.198-1.078,0.735-1.208c0.534-0.135,1.077,0.198,1.208,0.735l0.677,2.781c0.131,0.537-0.198,1.078-0.735,1.208
							C338.382,72.308,338.302,72.316,338.224,72.316z"/>
					</g>
					<g>
						<path style="fill:#FFFFFF;" d="M335.478,73.12c-0.434,0-0.832-0.283-0.96-0.72c-0.155-0.53,0.149-1.085,0.68-1.24l2.746-0.804
							c0.525-0.155,1.085,0.149,1.24,0.68c0.155,0.53-0.149,1.085-0.68,1.24l-2.746,0.804
							C335.666,73.107,335.571,73.12,335.478,73.12z"/>
					</g>
				</g>
				<g>
					<g>
						<path style="fill:#FFFFFF;" d="M332.977,81.61c-0.346,0-0.682-0.179-0.867-0.5c-0.276-0.479-0.112-1.09,0.366-1.366
							l10.674-6.162c0.476-0.276,1.089-0.112,1.366,0.366c0.276,0.479,0.112,1.09-0.366,1.366l-10.674,6.162
							C333.318,81.567,333.147,81.61,332.977,81.61z"/>
					</g>
					<g>
						<path style="fill:#FFFFFF;" d="M338.225,78.581c-0.093,0-0.188-0.014-0.281-0.041l-2.746-0.804
							c-0.529-0.155-0.834-0.711-0.679-1.24c0.155-0.53,0.709-0.834,1.241-0.68l2.746,0.804c0.529,0.155,0.834,0.711,0.679,1.241
							C339.057,78.298,338.658,78.581,338.225,78.581z"/>
					</g>
					<g>
						<path style="fill:#FFFFFF;" d="M337.549,81.361c-0.078,0-0.158-0.009-0.237-0.028c-0.537-0.131-0.866-0.672-0.735-1.208
							l0.677-2.781c0.131-0.536,0.673-0.866,1.208-0.735c0.537,0.131,0.866,0.672,0.735,1.208l-0.677,2.781
							C338.408,81.055,337.999,81.361,337.549,81.361z"/>
					</g>
				</g>
				<g>
					<g>
						<path style="fill:#FFFFFF;" d="M343.649,87.772c-0.553,0-1-0.448-1-1V74.448c0-0.552,0.447-1,1-1c0.553,0,1,0.448,1,1v12.324
							C344.649,87.324,344.202,87.772,343.649,87.772z"/>
					</g>
					<g>
						<path style="fill:#FFFFFF;" d="M341.58,83.689c-0.264,0-0.526-0.104-0.723-0.31c-0.382-0.398-0.367-1.032,0.031-1.413
							l2.069-1.979c0.401-0.382,1.032-0.368,1.414,0.031c0.382,0.399,0.367,1.032-0.031,1.414l-2.069,1.979
							C342.077,83.598,341.829,83.689,341.58,83.689z"/>
					</g>
					<g>
						<path style="fill:#FFFFFF;" d="M345.719,83.689c-0.249,0-0.497-0.092-0.691-0.277l-2.069-1.979
							c-0.398-0.382-0.413-1.015-0.031-1.414c0.381-0.4,1.014-0.414,1.414-0.031l2.069,1.979c0.398,0.381,0.413,1.015,0.031,1.413
							C346.245,83.586,345.982,83.689,345.719,83.689z"/>
					</g>
				</g>
				<g>
					<g>
						<path style="fill:#FFFFFF;" d="M354.322,81.61c-0.17,0-0.342-0.043-0.499-0.134l-10.674-6.162
							c-0.479-0.276-0.643-0.888-0.366-1.366c0.276-0.478,0.889-0.642,1.366-0.366l10.674,6.162
							c0.479,0.276,0.643,0.888,0.366,1.366C355.004,81.432,354.668,81.61,354.322,81.61z"/>
					</g>
					<g>
						<path style="fill:#FFFFFF;" d="M349.752,81.361c-0.45,0-0.858-0.306-0.971-0.763l-0.68-2.781
							c-0.131-0.536,0.197-1.077,0.734-1.208c0.534-0.132,1.077,0.196,1.209,0.733l0.68,2.781c0.131,0.536-0.197,1.077-0.734,1.208
							C349.91,81.352,349.831,81.361,349.752,81.361z"/>
					</g>
					<g>
						<path style="fill:#FFFFFF;" d="M349.073,78.581c-0.434,0-0.832-0.283-0.96-0.72c-0.155-0.53,0.149-1.086,0.68-1.241
							l2.748-0.804c0.529-0.155,1.085,0.149,1.24,0.68c0.155,0.53-0.15,1.085-0.68,1.24l-2.748,0.804
							C349.26,78.567,349.166,78.581,349.073,78.581z"/>
					</g>
				</g>
				<g>
					<g>
						<path style="fill:#FFFFFF;" d="M343.65,75.448c-0.346,0-0.682-0.179-0.867-0.5c-0.276-0.478-0.112-1.09,0.366-1.366
							l10.674-6.162c0.477-0.276,1.09-0.112,1.366,0.366c0.276,0.479,0.112,1.09-0.366,1.366l-10.674,6.162
							C343.992,75.405,343.82,75.448,343.65,75.448z"/>
					</g>
					<g>
						<path style="fill:#FFFFFF;" d="M351.821,73.12c-0.093,0-0.186-0.013-0.28-0.04l-2.748-0.804c-0.53-0.155-0.835-0.71-0.68-1.24
							c0.155-0.529,0.706-0.834,1.24-0.68l2.748,0.804c0.53,0.155,0.835,0.71,0.68,1.24C352.653,72.837,352.255,73.12,351.821,73.12
							z"/>
					</g>
					<g>
						<path style="fill:#FFFFFF;" d="M349.074,72.316c-0.079,0-0.158-0.009-0.238-0.028c-0.536-0.131-0.865-0.672-0.734-1.209
							l0.68-2.781c0.132-0.537,0.674-0.864,1.209-0.734c0.536,0.131,0.865,0.672,0.734,1.209l-0.68,2.781
							C349.933,72.011,349.524,72.316,349.074,72.316z"/>
					</g>
				</g>
			</g>
			<g>
				<g>
					<g>
						<path style="fill:#FFFFFF;" d="M704.791,200.606c-0.277,0.479-0.889,0.642-1.367,0.364l-10.664-6.18
							c-0.478-0.277-0.641-0.889-0.363-1.367c0.277-0.477,0.889-0.641,1.367-0.363l10.663,6.18
							C704.904,199.518,705.068,200.129,704.791,200.606z"/>
					</g>
					<g>
						<path style="fill:#FFFFFF;" d="M699.371,197.467c-0.132,0.229-0.354,0.404-0.629,0.471c-0.537,0.13-1.078-0.2-1.208-0.736
							l-0.675-2.783c-0.129-0.537,0.201-1.077,0.736-1.207c0.537-0.131,1.078,0.199,1.208,0.736l0.675,2.783
							C699.541,196.99,699.496,197.252,699.371,197.467z"/>
					</g>
					<g>
						<path style="fill:#FFFFFF;" d="M699.371,197.467c-0.125,0.215-0.328,0.385-0.586,0.459l-2.75,0.799
							c-0.529,0.152-1.085-0.152-1.238-0.682c-0.155-0.529,0.148-1.084,0.682-1.24l2.749-0.797c0.53-0.154,1.085,0.15,1.239,0.681
							C699.546,196.959,699.504,197.238,699.371,197.467z"/>
					</g>
				</g>
				<g>
					<g>
						<path style="fill:#FFFFFF;" d="M704.789,200.607c-0.085,0.146-0.209,0.273-0.365,0.364l-10.684,6.146
							c-0.479,0.275-1.09,0.111-1.365-0.367c-0.276-0.48-0.111-1.092,0.367-1.367l10.684-6.145c0.479-0.275,1.09-0.111,1.365,0.368
							C704.977,199.928,704.963,200.309,704.789,200.607z"/>
					</g>
					<g>
						<path style="fill:#FFFFFF;" d="M699.359,203.73c-0.225,0.389-0.695,0.59-1.147,0.457l-2.746-0.809
							c-0.53-0.156-0.833-0.711-0.677-1.242c0.152-0.529,0.713-0.832,1.242-0.678l2.746,0.811c0.53,0.156,0.833,0.711,0.677,1.242
							C699.432,203.59,699.398,203.662,699.359,203.73z"/>
					</g>
					<g>
						<path style="fill:#FFFFFF;" d="M698.679,206.51c-0.218,0.375-0.662,0.577-1.104,0.469c-0.536-0.131-0.863-0.674-0.732-1.211
							l0.682-2.777c0.129-0.533,0.674-0.863,1.21-0.732c0.536,0.131,0.864,0.674,0.733,1.209l-0.683,2.779
							C698.762,206.34,698.725,206.43,698.679,206.51z"/>
					</g>
				</g>
				<g>
					<g>
						<path style="fill:#FFFFFF;" d="M704.771,212.93c-0.173,0.301-0.497,0.5-0.867,0.5c-0.553,0-1-0.449-0.999-1.002l0.02-12.324
							c0-0.551,0.449-0.998,1.002-0.998c0.553,0,1,0.448,0.998,1.001l-0.02,12.325C704.904,212.613,704.856,212.783,704.771,212.93z
							"/>
					</g>
					<g>
						<path style="fill:#FFFFFF;" d="M704.78,206.871c-0.046,0.08-0.106,0.155-0.177,0.223l-2.072,1.973
							c-0.398,0.381-1.033,0.365-1.414-0.035c-0.38-0.398-0.365-1.031,0.035-1.414l2.072-1.973c0.4-0.38,1.033-0.365,1.414,0.035
							C704.952,206.01,704.998,206.496,704.78,206.871z"/>
					</g>
					<g>
						<path style="fill:#FFFFFF;" d="M706.847,208.85c-0.039,0.068-0.087,0.133-0.144,0.191c-0.383,0.398-1.015,0.412-1.414,0.029
							l-2.066-1.979c-0.398-0.383-0.412-1.018-0.03-1.414c0.382-0.4,1.015-0.413,1.414-0.031l2.067,1.98
							C707.013,207.952,707.072,208.461,706.847,208.85z"/>
					</g>
				</g>
				<g>
					<g>
						<path style="fill:#FFFFFF;" d="M715.453,206.785c-0.277,0.479-0.89,0.641-1.367,0.363l-10.663-6.178
							c-0.478-0.277-0.641-0.889-0.364-1.367c0.277-0.479,0.89-0.641,1.367-0.363l10.663,6.178
							C715.566,205.695,715.731,206.307,715.453,206.785z"/>
					</g>
					<g>
						<path style="fill:#FFFFFF;" d="M710.883,206.529c-0.133,0.227-0.354,0.402-0.631,0.469c-0.536,0.131-1.076-0.199-1.207-0.735
							l-0.674-2.782c-0.129-0.539,0.199-1.078,0.736-1.207c0.536-0.131,1.077,0.199,1.207,0.736l0.674,2.781
							C711.053,206.053,711.008,206.313,710.883,206.529z"/>
					</g>
					<g>
						<path style="fill:#FFFFFF;" d="M712.957,202.947c-0.125,0.217-0.328,0.385-0.586,0.459l-2.75,0.799
							c-0.529,0.154-1.085-0.15-1.238-0.682c-0.156-0.53,0.15-1.085,0.682-1.238l2.749-0.8c0.53-0.153,1.085,0.151,1.239,0.683
							C713.131,202.441,713.09,202.719,712.957,202.947z"/>
					</g>
				</g>
				<g>
					<g>
						<path style="fill:#FFFFFF;" d="M715.473,194.461c-0.085,0.148-0.209,0.275-0.366,0.365l-10.683,6.145
							c-0.48,0.275-1.091,0.112-1.366-0.368c-0.276-0.479-0.11-1.092,0.368-1.365l10.684-6.146c0.479-0.275,1.09-0.111,1.365,0.369
							C715.659,193.781,715.646,194.162,715.473,194.461z"/>
					</g>
					<g>
						<path style="fill:#FFFFFF;" d="M712.965,198.291c-0.225,0.389-0.694,0.59-1.146,0.457l-2.746-0.806
							c-0.53-0.155-0.834-0.712-0.678-1.241c0.154-0.528,0.71-0.834,1.24-0.678l2.748,0.806c0.529,0.155,0.832,0.71,0.677,1.241
							C713.037,198.148,713.004,198.223,712.965,198.291z"/>
					</g>
					<g>
						<path style="fill:#FFFFFF;" d="M710.219,197.484c-0.217,0.375-0.662,0.578-1.104,0.469c-0.537-0.131-0.864-0.673-0.732-1.209
							l0.682-2.781c0.132-0.536,0.674-0.863,1.21-0.732c0.536,0.131,0.864,0.674,0.733,1.211l-0.684,2.779
							C710.301,197.316,710.266,197.404,710.219,197.484z"/>
					</g>
				</g>
				<g>
					<g>
						<path style="fill:#FFFFFF;" d="M704.79,200.605c-0.173,0.299-0.497,0.5-0.867,0.5c-0.553,0-0.999-0.449-0.999-1.002
							l0.02-12.326c-0.001-0.551,0.448-0.998,1.001-0.998c0.553,0.001,1,0.449,0.999,1.002l-0.02,12.325
							C704.924,200.289,704.875,200.459,704.79,200.605z"/>
					</g>
					<g>
						<path style="fill:#FFFFFF;" d="M706.873,192.369c-0.047,0.08-0.105,0.154-0.176,0.221l-2.072,1.977
							c-0.4,0.381-1.034,0.365-1.415-0.035c-0.38-0.398-0.368-1.028,0.034-1.414l2.072-1.975c0.4-0.381,1.033-0.365,1.414,0.035
							C707.044,191.506,707.09,191.994,706.873,192.369z"/>
					</g>
					<g>
						<path style="fill:#FFFFFF;" d="M704.8,194.342c-0.04,0.068-0.087,0.133-0.143,0.192c-0.383,0.397-1.016,0.412-1.414,0.03
							l-2.066-1.982c-0.398-0.385-0.41-1.018-0.029-1.416c0.382-0.398,1.016-0.41,1.414-0.028l2.067,1.983
							C704.966,193.445,705.025,193.953,704.8,194.342z"/>
					</g>
				</g>
			</g>
			<g>
				<g>
					<g>
						<path style="fill:#FFFFFF;" d="M33.218,119.73c-0.29-0.471-0.142-1.086,0.329-1.375l10.498-6.455
							c0.471-0.289,1.086-0.143,1.376,0.328c0.29,0.472,0.143,1.087-0.328,1.376l-10.499,6.455
							C34.123,120.349,33.508,120.202,33.218,119.73z"/>
					</g>
					<g>
						<path style="fill:#FFFFFF;" d="M38.553,116.45c-0.138-0.225-0.187-0.502-0.115-0.777c0.141-0.533,0.688-0.853,1.222-0.714
							l2.769,0.727c0.535,0.142,0.854,0.688,0.714,1.222c-0.14,0.534-0.687,0.853-1.221,0.714l-2.769-0.726
							C38.892,116.826,38.684,116.663,38.553,116.45z"/>
					</g>
					<g>
						<path style="fill:#FFFFFF;" d="M38.553,116.45c-0.13-0.212-0.182-0.471-0.125-0.734l0.602-2.799
							c0.116-0.538,0.648-0.883,1.188-0.767c0.541,0.115,0.884,0.646,0.768,1.188l-0.602,2.8c-0.116,0.539-0.648,0.883-1.188,0.768
							C38.918,116.846,38.691,116.675,38.553,116.45z"/>
					</g>
				</g>
				<g>
					<g>
						<path style="fill:#FFFFFF;" d="M33.219,119.729c-0.09-0.145-0.143-0.314-0.148-0.495l-0.34-12.32
							c-0.016-0.552,0.42-1.012,0.973-1.026c0.552-0.016,1.012,0.418,1.027,0.971l0.34,12.321c0.016,0.552-0.42,1.012-0.973,1.026
							C33.727,120.216,33.399,120.024,33.219,119.729z"/>
					</g>
					<g>
						<path style="fill:#FFFFFF;" d="M33.045,113.468c-0.235-0.383-0.189-0.892,0.143-1.227l2.016-2.033
							c0.389-0.393,1.022-0.396,1.414-0.006c0.394,0.385,0.395,1.021,0.006,1.413l-2.016,2.034
							c-0.389,0.393-1.021,0.396-1.414,0.006C33.135,113.598,33.086,113.535,33.045,113.468z"/>
					</g>
					<g>
						<path style="fill:#FFFFFF;" d="M30.923,111.551c-0.228-0.37-0.194-0.857,0.11-1.195c0.37-0.409,1.003-0.44,1.413-0.071
							l2.122,1.92c0.407,0.365,0.441,1.002,0.07,1.412c-0.369,0.41-1.002,0.44-1.412,0.07l-2.123-1.919
							C31.032,111.703,30.972,111.63,30.923,111.551z"/>
					</g>
				</g>
				<g>
					<g>
						<path style="fill:#FFFFFF;" d="M22.38,113.865c-0.181-0.294-0.204-0.674-0.028-1c0.263-0.485,0.869-0.667,1.355-0.404
							l10.84,5.866c0.484,0.26,0.666,0.868,0.403,1.355c-0.263,0.486-0.87,0.666-1.355,0.404l-10.84-5.867
							C22.596,114.134,22.469,114.01,22.38,113.865z"/>
					</g>
					<g>
						<path style="fill:#FFFFFF;" d="M27.709,116.749c-0.049-0.079-0.086-0.166-0.112-0.26l-0.753-2.762
							c-0.146-0.531,0.168-1.082,0.701-1.228c0.532-0.145,1.081,0.168,1.228,0.702l0.753,2.761c0.146,0.531-0.169,1.082-0.701,1.228
							C28.387,117.31,27.936,117.118,27.709,116.749z"/>
					</g>
					<g>
						<path style="fill:#FFFFFF;" d="M24.986,117.63c-0.041-0.066-0.074-0.139-0.1-0.217c-0.17-0.526,0.118-1.09,0.645-1.26
							l2.723-0.879c0.525-0.17,1.091,0.119,1.26,0.644c0.169,0.526-0.119,1.09-0.645,1.259l-2.723,0.88
							C25.697,118.201,25.223,118.013,24.986,117.63z"/>
					</g>
				</g>
				<g>
					<g>
						<path style="fill:#FFFFFF;" d="M22.721,126.185c-0.29-0.471-0.143-1.086,0.328-1.376l10.498-6.454
							c0.471-0.289,1.086-0.143,1.375,0.328c0.29,0.472,0.143,1.087-0.328,1.376l-10.498,6.454
							C23.625,126.802,23.01,126.655,22.721,126.185z"/>
					</g>
					<g>
						<path style="fill:#FFFFFF;" d="M25.115,122.283c-0.139-0.225-0.188-0.503-0.115-0.777c0.14-0.534,0.687-0.853,1.221-0.714
							l2.77,0.727c0.535,0.142,0.854,0.688,0.713,1.222c-0.141,0.534-0.688,0.853-1.221,0.714l-2.77-0.728
							C25.453,122.659,25.245,122.496,25.115,122.283z"/>
					</g>
					<g>
						<path style="fill:#FFFFFF;" d="M27.282,125.81c-0.13-0.213-0.182-0.472-0.126-0.735l0.602-2.799
							c0.116-0.538,0.648-0.883,1.188-0.767c0.541,0.114,0.885,0.646,0.769,1.189l-0.603,2.799
							c-0.115,0.538-0.647,0.883-1.188,0.767C27.646,126.204,27.42,126.034,27.282,125.81z"/>
					</g>
				</g>
				<g>
					<g>
						<path style="fill:#FFFFFF;" d="M33.559,132.05c-0.089-0.145-0.143-0.314-0.146-0.496l-0.342-12.319
							c-0.015-0.552,0.42-1.012,0.973-1.027c0.553-0.016,1.013,0.421,1.027,0.973l0.341,12.319c0.015,0.553-0.42,1.012-0.972,1.027
							C34.068,132.536,33.74,132.344,33.559,132.05z"/>
					</g>
					<g>
						<path style="fill:#FFFFFF;" d="M31.378,128.025c-0.235-0.384-0.189-0.892,0.142-1.227l2.013-2.035
							c0.388-0.392,1.021-0.396,1.414-0.007c0.392,0.387,0.397,1.021,0.008,1.414l-2.013,2.035
							c-0.389,0.393-1.021,0.396-1.414,0.008C31.469,128.155,31.42,128.093,31.378,128.025z"/>
					</g>
					<g>
						<path style="fill:#FFFFFF;" d="M33.391,125.991c-0.226-0.369-0.194-0.857,0.111-1.195c0.37-0.409,1.002-0.44,1.412-0.07
							l2.124,1.921c0.409,0.369,0.44,1.002,0.071,1.412c-0.371,0.409-1.003,0.44-1.413,0.071l-2.124-1.922
							C33.5,126.144,33.439,126.07,33.391,125.991z"/>
					</g>
				</g>
				<g>
					<g>
						<path style="fill:#FFFFFF;" d="M33.219,119.731c-0.18-0.295-0.204-0.674-0.027-1.001c0.263-0.485,0.869-0.666,1.356-0.403
							l10.84,5.865c0.485,0.262,0.666,0.869,0.403,1.355c-0.263,0.486-0.87,0.667-1.356,0.404l-10.839-5.865
							C33.435,119.999,33.309,119.876,33.219,119.731z"/>
					</g>
					<g>
						<path style="fill:#FFFFFF;" d="M39.482,125.473c-0.049-0.079-0.087-0.166-0.113-0.26l-0.754-2.763
							c-0.146-0.532,0.168-1.082,0.7-1.229c0.532-0.145,1.08,0.165,1.228,0.701l0.756,2.762c0.146,0.533-0.168,1.084-0.701,1.229
							C40.16,126.033,39.709,125.842,39.482,125.473z"/>
					</g>
					<g>
						<path style="fill:#FFFFFF;" d="M38.728,122.712c-0.042-0.067-0.076-0.14-0.101-0.219c-0.169-0.525,0.119-1.089,0.645-1.258
							l2.726-0.879c0.527-0.168,1.089,0.122,1.258,0.646c0.17,0.524-0.119,1.089-0.645,1.258l-2.726,0.879
							C39.437,123.283,38.964,123.095,38.728,122.712z"/>
					</g>
				</g>
			</g>
			<g>
				<g>
					<g>
						<path style="fill:#FFFFFF;" d="M149.306,291.965c-0.351,0.661-1.169,0.914-1.829,0.564l-14.751-7.795
							c-0.661-0.35-0.912-1.167-0.564-1.828c0.35-0.662,1.169-0.914,1.83-0.566l14.749,7.794
							C149.402,290.484,149.656,291.303,149.306,291.965z"/>
					</g>
					<g>
						<path style="fill:#FFFFFF;" d="M141.81,288.004c-0.167,0.314-0.456,0.564-0.827,0.67c-0.719,0.205-1.468-0.215-1.672-0.932
							l-1.059-3.728c-0.204-0.721,0.214-1.469,0.933-1.672c0.72-0.205,1.468,0.213,1.672,0.931l1.06,3.73
							C142.014,287.35,141.968,287.705,141.81,288.004z"/>
					</g>
					<g>
						<path style="fill:#FFFFFF;" d="M141.81,288.004c-0.157,0.297-0.423,0.537-0.77,0.652l-3.676,1.225
							c-0.708,0.236-1.476-0.146-1.712-0.857c-0.236-0.708,0.146-1.473,0.856-1.711l3.677-1.226
							c0.709-0.235,1.476,0.147,1.711,0.856C142.018,287.309,141.976,287.688,141.81,288.004z"/>
					</g>
				</g>
				<g>
					<g>
						<path style="fill:#FFFFFF;" d="M149.305,291.965c-0.109,0.203-0.269,0.383-0.477,0.512l-14.125,8.878
							c-0.633,0.398-1.469,0.208-1.866-0.425c-0.399-0.635-0.209-1.47,0.425-1.867l14.126-8.877
							c0.632-0.397,1.467-0.209,1.866,0.424C149.521,291.035,149.522,291.551,149.305,291.965z"/>
					</g>
					<g>
						<path style="fill:#FFFFFF;" d="M142.124,296.477c-0.284,0.537-0.909,0.836-1.526,0.68l-3.757-0.951
							c-0.726-0.182-1.165-0.918-0.982-1.643c0.179-0.725,0.92-1.164,1.645-0.98l3.758,0.949c0.725,0.182,1.165,0.918,0.979,1.642
							C142.214,296.282,142.174,296.383,142.124,296.477z"/>
					</g>
					<g>
						<path style="fill:#FFFFFF;" d="M141.352,300.27c-0.275,0.52-0.867,0.817-1.47,0.693c-0.732-0.148-1.204-0.865-1.055-1.598
							l0.775-3.793c0.146-0.727,0.866-1.205,1.599-1.055c0.731,0.148,1.204,0.864,1.055,1.597l-0.776,3.794
							C141.453,300.036,141.41,300.159,141.352,300.27z"/>
					</g>
				</g>
				<g>
					<g>
						<path style="fill:#FFFFFF;" d="M149.93,308.633c-0.219,0.414-0.646,0.703-1.146,0.723c-0.748,0.027-1.377-0.556-1.403-1.303
							l-0.626-16.672c-0.03-0.742,0.555-1.373,1.303-1.402c0.748-0.027,1.376,0.555,1.403,1.303l0.624,16.67
							C150.095,308.197,150.036,308.43,149.93,308.633z"/>
					</g>
					<g>
						<path style="fill:#FFFFFF;" d="M149.621,300.436c-0.058,0.111-0.133,0.217-0.225,0.311l-2.699,2.777
							c-0.521,0.535-1.379,0.549-1.914,0.027c-0.536-0.52-0.55-1.375-0.027-1.914l2.697-2.779c0.521-0.535,1.379-0.549,1.914-0.025
							C149.809,299.262,149.896,299.917,149.621,300.436z"/>
					</g>
					<g>
						<path style="fill:#FFFFFF;" d="M152.521,303.004c-0.049,0.094-0.109,0.184-0.184,0.266c-0.496,0.561-1.352,0.611-1.91,0.116
							l-2.9-2.568c-0.559-0.497-0.611-1.353-0.116-1.911c0.497-0.56,1.351-0.611,1.911-0.115l2.9,2.568
							C152.699,301.782,152.807,302.465,152.521,303.004z"/>
					</g>
				</g>
				<g>
					<g>
						<path style="fill:#FFFFFF;" d="M164.053,299.758c-0.35,0.66-1.168,0.912-1.829,0.564l-14.749-7.795
							c-0.661-0.348-0.913-1.167-0.563-1.828c0.349-0.662,1.168-0.914,1.829-0.564l14.747,7.793
							C164.149,298.277,164.402,299.096,164.053,299.758z"/>
					</g>
					<g>
						<path style="fill:#FFFFFF;" d="M157.857,299.651c-0.168,0.315-0.456,0.565-0.827,0.669c-0.718,0.205-1.468-0.213-1.672-0.931
							l-1.06-3.727c-0.201-0.723,0.213-1.469,0.933-1.673c0.719-0.204,1.468,0.214,1.672,0.933l1.059,3.727
							C158.062,298.998,158.016,299.353,157.857,299.651z"/>
					</g>
					<g>
						<path style="fill:#FFFFFF;" d="M160.475,294.699c-0.157,0.297-0.424,0.536-0.77,0.65l-3.676,1.227
							c-0.708,0.234-1.475-0.147-1.711-0.857c-0.238-0.71,0.145-1.476,0.855-1.712l3.678-1.227c0.708-0.236,1.476,0.147,1.71,0.857
							C160.684,294.002,160.642,294.383,160.475,294.699z"/>
					</g>
				</g>
				<g>
					<g>
						<path style="fill:#FFFFFF;" d="M163.428,283.088c-0.107,0.203-0.268,0.381-0.476,0.512l-14.124,8.877
							c-0.635,0.398-1.47,0.209-1.866-0.424c-0.399-0.634-0.208-1.471,0.426-1.867l14.124-8.877
							c0.633-0.398,1.469-0.209,1.867,0.426C163.644,282.16,163.646,282.674,163.428,283.088z"/>
					</g>
					<g>
						<path style="fill:#FFFFFF;" d="M160.238,288.398c-0.284,0.539-0.908,0.836-1.525,0.68l-3.758-0.943
							c-0.726-0.184-1.164-0.92-0.982-1.644c0.18-0.724,0.916-1.165,1.644-0.983l3.758,0.945c0.725,0.182,1.164,0.917,0.98,1.643
							C160.328,288.205,160.289,288.305,160.238,288.398z"/>
					</g>
					<g>
						<path style="fill:#FFFFFF;" d="M156.481,287.453c-0.272,0.52-0.864,0.816-1.467,0.694c-0.732-0.15-1.206-0.866-1.055-1.599
							l0.775-3.797c0.149-0.73,0.864-1.205,1.597-1.055c0.734,0.148,1.205,0.865,1.055,1.598l-0.775,3.797
							C156.585,287.223,156.541,287.342,156.481,287.453z"/>
					</g>
				</g>
				<g>
					<g>
						<path style="fill:#FFFFFF;" d="M149.305,291.963c-0.219,0.414-0.645,0.703-1.146,0.721c-0.748,0.028-1.376-0.555-1.404-1.303
							l-0.625-16.67c-0.029-0.746,0.556-1.375,1.304-1.402c0.748-0.029,1.374,0.554,1.403,1.301l0.624,16.672
							C149.47,291.525,149.412,291.76,149.305,291.963z"/>
					</g>
					<g>
						<path style="fill:#FFFFFF;" d="M151.685,280.713c-0.058,0.11-0.135,0.213-0.225,0.309l-2.699,2.781
							c-0.521,0.537-1.379,0.55-1.915,0.028c-0.534-0.521-0.552-1.372-0.027-1.914l2.698-2.78c0.521-0.537,1.379-0.551,1.914-0.029
							C151.873,279.537,151.961,280.193,151.685,280.713z"/>
					</g>
					<g>
						<path style="fill:#FFFFFF;" d="M148.986,283.49c-0.05,0.096-0.11,0.184-0.185,0.268c-0.497,0.559-1.351,0.611-1.911,0.115
							l-2.898-2.574c-0.56-0.496-0.607-1.352-0.114-1.91c0.496-0.559,1.353-0.61,1.91-0.113l2.9,2.57
							C149.164,282.271,149.271,282.951,148.986,283.49z"/>
					</g>
				</g>
			</g>
			<g>
				<g>
					<g>
						<path style="fill:#FFFFFF;" d="M46.744,357.949c-0.553,0-1-0.447-1-1v-12.324c0-0.553,0.447-1,1-1c0.553,0,1,0.447,1,1v12.324
							C47.744,357.502,47.297,357.949,46.744,357.949z"/>
					</g>
					<g>
						<path style="fill:#FFFFFF;" d="M46.744,351.685c-0.264,0-0.526-0.103-0.723-0.308c-0.382-0.399-0.367-1.032,0.031-1.414
							l2.069-1.978c0.4-0.381,1.033-0.367,1.414,0.032c0.382,0.399,0.367,1.032-0.031,1.413l-2.069,1.979
							C47.241,351.594,46.993,351.685,46.744,351.685z"/>
					</g>
					<g>
						<path style="fill:#FFFFFF;" d="M46.744,351.685c-0.249,0-0.497-0.092-0.691-0.277l-2.069-1.979
							c-0.398-0.381-0.413-1.014-0.031-1.413c0.381-0.399,1.013-0.415,1.414-0.032l2.069,1.978c0.399,0.382,0.413,1.016,0.031,1.414
							C47.27,351.582,47.008,351.685,46.744,351.685z"/>
					</g>
				</g>
				<g>
					<g>
						<path style="fill:#FFFFFF;" d="M46.743,357.948c-0.17,0-0.342-0.043-0.499-0.134l-10.674-6.162
							c-0.479-0.276-0.643-0.888-0.366-1.366c0.276-0.479,0.888-0.643,1.366-0.366l10.674,6.162
							c0.479,0.276,0.643,0.888,0.366,1.366C47.425,357.77,47.089,357.948,46.743,357.948z"/>
					</g>
					<g>
						<path style="fill:#FFFFFF;" d="M41.318,354.816c-0.45,0-0.859-0.307-0.971-0.764l-0.677-2.781
							c-0.131-0.537,0.198-1.078,0.735-1.209c0.534-0.134,1.077,0.199,1.208,0.736l0.677,2.781c0.131,0.537-0.198,1.078-0.735,1.208
							C41.477,354.808,41.396,354.816,41.318,354.816z"/>
					</g>
					<g>
						<path style="fill:#FFFFFF;" d="M38.573,355.62c-0.434,0-0.832-0.283-0.96-0.72c-0.155-0.53,0.149-1.086,0.68-1.24l2.746-0.804
							c0.524-0.155,1.085,0.149,1.24,0.679c0.155,0.531-0.149,1.086-0.68,1.241l-2.746,0.804
							C38.761,355.607,38.666,355.62,38.573,355.62z"/>
					</g>
				</g>
				<g>
					<g>
						<path style="fill:#FFFFFF;" d="M36.071,364.11c-0.346,0-0.682-0.179-0.867-0.5c-0.276-0.479-0.112-1.09,0.366-1.366
							l10.674-6.162c0.476-0.276,1.089-0.113,1.366,0.366c0.276,0.479,0.112,1.09-0.366,1.366l-10.674,6.162
							C36.413,364.067,36.241,364.11,36.071,364.11z"/>
					</g>
					<g>
						<path style="fill:#FFFFFF;" d="M41.319,361.08c-0.093,0-0.188-0.013-0.281-0.04l-2.746-0.804
							c-0.529-0.155-0.834-0.711-0.679-1.24c0.155-0.53,0.709-0.834,1.241-0.68l2.746,0.804c0.529,0.155,0.834,0.711,0.679,1.241
							C42.151,360.797,41.753,361.08,41.319,361.08z"/>
					</g>
					<g>
						<path style="fill:#FFFFFF;" d="M40.644,363.861c-0.078,0-0.158-0.01-0.237-0.029c-0.537-0.131-0.866-0.671-0.735-1.207
							l0.677-2.781c0.131-0.537,0.673-0.867,1.208-0.735c0.537,0.131,0.866,0.671,0.735,1.208l-0.677,2.781
							C41.503,363.555,41.094,363.861,40.644,363.861z"/>
					</g>
				</g>
				<g>
					<g>
						<path style="fill:#FFFFFF;" d="M46.744,370.272c-0.553,0-1-0.447-1-1v-12.323c0-0.552,0.447-1,1-1c0.553,0,1,0.448,1,1v12.323
							C47.744,369.824,47.297,370.272,46.744,370.272z"/>
					</g>
					<g>
						<path style="fill:#FFFFFF;" d="M44.675,366.19c-0.264,0-0.526-0.104-0.723-0.31c-0.382-0.399-0.367-1.032,0.031-1.413
							l2.069-1.978c0.401-0.383,1.032-0.368,1.414,0.031c0.382,0.398,0.367,1.032-0.031,1.414l-2.069,1.979
							C45.172,366.098,44.924,366.19,44.675,366.19z"/>
					</g>
					<g>
						<path style="fill:#FFFFFF;" d="M48.813,366.19c-0.249,0-0.497-0.092-0.691-0.277l-2.069-1.979
							c-0.398-0.382-0.413-1.016-0.031-1.414c0.381-0.4,1.014-0.414,1.414-0.031l2.069,1.978c0.398,0.381,0.413,1.014,0.031,1.413
							C49.34,366.086,49.077,366.19,48.813,366.19z"/>
					</g>
				</g>
				<g>
					<g>
						<path style="fill:#FFFFFF;" d="M57.417,364.11c-0.17,0-0.342-0.043-0.499-0.134l-10.674-6.162
							c-0.479-0.276-0.642-0.888-0.366-1.366c0.276-0.479,0.889-0.643,1.366-0.366l10.674,6.162
							c0.478,0.276,0.642,0.888,0.366,1.366C58.099,363.932,57.763,364.11,57.417,364.11z"/>
					</g>
					<g>
						<path style="fill:#FFFFFF;" d="M52.847,363.861c-0.45,0-0.858-0.307-0.971-0.764l-0.68-2.78
							c-0.131-0.536,0.197-1.077,0.734-1.208c0.534-0.132,1.077,0.195,1.209,0.733l0.68,2.78c0.131,0.537-0.197,1.078-0.734,1.209
							C53.005,363.852,52.926,363.861,52.847,363.861z"/>
					</g>
					<g>
						<path style="fill:#FFFFFF;" d="M52.168,361.08c-0.434,0-0.832-0.283-0.96-0.719c-0.155-0.531,0.149-1.086,0.68-1.241
							l2.748-0.804c0.529-0.155,1.085,0.149,1.24,0.68c0.155,0.529-0.149,1.085-0.68,1.24l-2.748,0.804
							C52.354,361.067,52.261,361.08,52.168,361.08z"/>
					</g>
				</g>
				<g>
					<g>
						<path style="fill:#FFFFFF;" d="M46.745,357.948c-0.346,0-0.682-0.179-0.867-0.5c-0.276-0.479-0.112-1.09,0.366-1.366
							l10.674-6.162c0.476-0.277,1.09-0.113,1.366,0.366c0.276,0.478,0.112,1.09-0.366,1.366l-10.674,6.162
							C47.087,357.905,46.915,357.948,46.745,357.948z"/>
					</g>
					<g>
						<path style="fill:#FFFFFF;" d="M54.916,355.62c-0.093,0-0.187-0.013-0.28-0.04l-2.748-0.804
							c-0.53-0.155-0.835-0.71-0.68-1.241c0.155-0.529,0.706-0.834,1.24-0.679l2.748,0.804c0.53,0.154,0.835,0.71,0.68,1.24
							C55.748,355.336,55.35,355.62,54.916,355.62z"/>
					</g>
					<g>
						<path style="fill:#FFFFFF;" d="M52.169,354.816c-0.079,0-0.158-0.01-0.238-0.029c-0.536-0.131-0.865-0.672-0.734-1.208
							l0.68-2.782c0.132-0.537,0.674-0.863,1.209-0.733c0.536,0.131,0.865,0.672,0.734,1.208l-0.68,2.782
							C53.027,354.511,52.619,354.816,52.169,354.816z"/>
					</g>
				</g>
			</g>
			<g>
				<g>
					<g>
						<path style="fill:#FFFFFF;" d="M695.321,351.265c-0.517-0.577-0.466-1.466,0.11-1.979l12.883-11.521
							c0.578-0.517,1.464-0.467,1.98,0.111c0.518,0.578,0.467,1.462-0.109,1.979l-12.885,11.521
							C696.724,351.891,695.839,351.843,695.321,351.265z"/>
					</g>
					<g>
						<path style="fill:#FFFFFF;" d="M701.869,345.409c-0.247-0.275-0.385-0.647-0.352-1.044c0.059-0.771,0.733-1.349,1.507-1.289
							l4.001,0.314c0.774,0.061,1.351,0.736,1.29,1.508c-0.061,0.771-0.736,1.349-1.508,1.289l-4.003-0.315
							C702.429,345.845,702.102,345.67,701.869,345.409z"/>
					</g>
					<g>
						<path style="fill:#FFFFFF;" d="M701.869,345.409c-0.233-0.261-0.369-0.605-0.357-0.98l0.133-4.015
							c0.028-0.771,0.674-1.379,1.449-1.354c0.775,0.025,1.381,0.671,1.355,1.449l-0.134,4.012
							c-0.027,0.772-0.675,1.381-1.448,1.354C702.47,345.863,702.115,345.685,701.869,345.409z"/>
					</g>
				</g>
				<g>
					<g>
						<path style="fill:#FFFFFF;" d="M695.321,351.262c-0.159-0.178-0.274-0.396-0.326-0.646l-3.536-16.918
							c-0.158-0.758,0.326-1.5,1.085-1.66c0.759-0.158,1.503,0.328,1.659,1.087l3.538,16.918c0.157,0.759-0.327,1.503-1.087,1.659
							C696.146,351.807,695.644,351.623,695.321,351.262z"/>
					</g>
					<g>
						<path style="fill:#FFFFFF;" d="M693.524,342.664c-0.422-0.471-0.483-1.184-0.109-1.728l2.276-3.309
							c0.438-0.638,1.311-0.8,1.949-0.362c0.639,0.436,0.799,1.315,0.36,1.951l-2.274,3.309c-0.44,0.638-1.313,0.799-1.95,0.361
							C693.681,342.82,693.599,342.746,693.524,342.664z"/>
					</g>
					<g>
						<path style="fill:#FFFFFF;" d="M690.117,340.547c-0.405-0.454-0.482-1.137-0.144-1.677c0.409-0.659,1.274-0.858,1.933-0.449
							l3.406,2.118c0.652,0.404,0.857,1.275,0.449,1.933c-0.41,0.659-1.274,0.858-1.934,0.449l-3.405-2.118
							C690.307,340.73,690.205,340.644,690.117,340.547z"/>
					</g>
				</g>
				<g>
					<g>
						<path style="fill:#FFFFFF;" d="M678.904,345.867c-0.323-0.361-0.449-0.88-0.287-1.373c0.24-0.736,1.033-1.137,1.771-0.896
							l16.418,5.398c0.733,0.238,1.137,1.032,0.895,1.768c-0.244,0.737-1.035,1.137-1.771,0.897l-16.418-5.398
							C679.269,346.184,679.063,346.045,678.904,345.867z"/>
					</g>
					<g>
						<path style="fill:#FFFFFF;" d="M686.977,348.521c-0.086-0.097-0.161-0.208-0.22-0.331l-1.727-3.621
							c-0.332-0.699-0.037-1.537,0.664-1.871c0.699-0.331,1.533-0.038,1.869,0.663l1.727,3.622c0.331,0.699,0.036,1.537-0.663,1.869
							C688.051,349.125,687.383,348.975,686.977,348.521z"/>
					</g>
					<g>
						<path style="fill:#FFFFFF;" d="M683.44,350.413c-0.073-0.083-0.139-0.173-0.192-0.274c-0.367-0.684-0.109-1.533,0.575-1.897
							l3.538-1.893c0.683-0.364,1.535-0.106,1.898,0.575c0.365,0.685,0.107,1.533-0.574,1.898l-3.541,1.893
							C684.563,351.025,683.86,350.885,683.44,350.413z"/>
					</g>
				</g>
				<g>
					<g>
						<path style="fill:#FFFFFF;" d="M682.44,362.785c-0.517-0.578-0.466-1.466,0.11-1.98l12.883-11.521
							c0.576-0.516,1.463-0.467,1.981,0.111c0.516,0.578,0.465,1.463-0.113,1.98l-12.881,11.52
							C683.843,363.41,682.958,363.362,682.44,362.785z"/>
					</g>
					<g>
						<path style="fill:#FFFFFF;" d="M684.773,356.805c-0.246-0.275-0.383-0.648-0.352-1.045c0.059-0.773,0.735-1.348,1.506-1.289
							l4.004,0.314c0.775,0.063,1.35,0.735,1.288,1.508c-0.06,0.773-0.735,1.349-1.508,1.288l-4.001-0.313
							C685.336,357.236,685.007,357.065,684.773,356.805z"/>
					</g>
					<g>
						<path style="fill:#FFFFFF;" d="M688.643,361.131c-0.232-0.261-0.369-0.605-0.355-0.984l0.133-4.012
							c0.027-0.772,0.674-1.379,1.448-1.353c0.774,0.025,1.38,0.672,1.355,1.449l-0.134,4.012c-0.026,0.773-0.674,1.381-1.449,1.354
							C689.244,361.582,688.889,361.405,688.643,361.131z"/>
					</g>
				</g>
				<g>
					<g>
						<path style="fill:#FFFFFF;" d="M698.858,368.18c-0.159-0.178-0.275-0.396-0.327-0.646l-3.536-16.918
							c-0.159-0.758,0.326-1.5,1.086-1.659c0.759-0.159,1.503,0.329,1.66,1.086l3.537,16.917c0.157,0.758-0.329,1.502-1.087,1.659
							C699.683,368.725,699.182,368.541,698.858,368.18z"/>
					</g>
					<g>
						<path style="fill:#FFFFFF;" d="M694.848,363.17c-0.422-0.471-0.484-1.184-0.111-1.727l2.271-3.312
							c0.44-0.637,1.311-0.799,1.951-0.361c0.635,0.436,0.799,1.309,0.361,1.95l-2.271,3.31c-0.438,0.637-1.312,0.801-1.949,0.363
							C695.004,363.326,694.922,363.253,694.848,363.17z"/>
					</g>
					<g>
						<path style="fill:#FFFFFF;" d="M697.117,359.861c-0.404-0.453-0.482-1.135-0.144-1.677c0.41-0.659,1.275-0.858,1.934-0.449
							l3.408,2.121c0.658,0.408,0.859,1.274,0.449,1.931c-0.409,0.658-1.274,0.859-1.932,0.449l-3.408-2.119
							C697.307,360.043,697.205,359.958,697.117,359.861z"/>
					</g>
				</g>
				<g>
					<g>
						<path style="fill:#FFFFFF;" d="M695.324,351.265c-0.323-0.361-0.451-0.879-0.288-1.374c0.241-0.736,1.032-1.137,1.77-0.893
							l16.419,5.396c0.734,0.24,1.137,1.035,0.894,1.771c-0.242,0.736-1.033,1.136-1.771,0.893l-16.419-5.395
							C695.688,351.582,695.482,351.443,695.324,351.265z"/>
					</g>
					<g>
						<path style="fill:#FFFFFF;" d="M705.394,357.63c-0.086-0.099-0.16-0.208-0.219-0.331l-1.729-3.623
							c-0.333-0.701-0.038-1.537,0.661-1.871c0.699-0.332,1.531-0.041,1.871,0.662l1.728,3.624c0.334,0.698,0.037,1.536-0.662,1.868
							C706.469,358.234,705.801,358.082,705.394,357.63z"/>
					</g>
					<g>
						<path style="fill:#FFFFFF;" d="M703.666,354.006c-0.073-0.082-0.137-0.174-0.191-0.275c-0.364-0.683-0.106-1.531,0.576-1.897
							l3.543-1.89c0.685-0.364,1.534-0.104,1.898,0.578c0.364,0.684,0.107,1.532-0.578,1.896l-3.543,1.89
							C704.789,354.619,704.088,354.478,703.666,354.006z"/>
					</g>
				</g>
			</g>
		</g>
		<g>
			<g>
				<g>
					<g>
						<g>
							<g>
								
									<text transform="matrix(1 0 0 1 280.7852 427.8921)" style="fill:#F9A62D; font-family:'Montserrat-Regular'; font-size:14.2995px; letter-spacing:1;">Lorem Ipsum Dolor</text>
							</g>
						</g>
					</g>
				</g>
			</g>
			<g>
				<rect x="205.258" y="438.694" style="fill:none;" width="339.484" height="24.333"/>
				<text transform="matrix(1 0 0 1 205.2578 444.6304)"><tspan x="0" y="0" style="fill:#FFFFFF; font-family:'Montserrat-Light'; font-size:8px;">Lorem</tspan><tspan x="28.079" y="0" style="fill:#FFFFFF; font-family:'Montserrat-Light'; font-size:8px; letter-spacing:2;"> </tspan><tspan x="33.131" y="0" style="fill:#FFFFFF; font-family:'Montserrat-Light'; font-size:8px;">ipsum</tspan><tspan x="60.307" y="0" style="fill:#FFFFFF; font-family:'Montserrat-Light'; font-size:8px; letter-spacing:2;"> </tspan><tspan x="65.36" y="0" style="fill:#FFFFFF; font-family:'Montserrat-Light'; font-size:8px;">dolor</tspan><tspan x="87.919" y="0" style="fill:#FFFFFF; font-family:'Montserrat-Light'; font-size:8px; letter-spacing:2;"> </tspan><tspan x="92.972" y="0" style="fill:#FFFFFF; font-family:'Montserrat-Light'; font-size:8px;">sit</tspan><tspan x="103.268" y="0" style="fill:#FFFFFF; font-family:'Montserrat-Light'; font-size:8px; letter-spacing:2;"> </tspan><tspan x="108.321" y="0" style="fill:#FFFFFF; font-family:'Montserrat-Light'; font-size:8px;">amet,</tspan><tspan x="133.057" y="0" style="fill:#FFFFFF; font-family:'Montserrat-Light'; font-size:8px; letter-spacing:2;"> </tspan><tspan x="138.11" y="0" style="fill:#FFFFFF; font-family:'Montserrat-Light'; font-size:8px;">consectetur</tspan><tspan x="189.981" y="0" style="fill:#FFFFFF; font-family:'Montserrat-Light'; font-size:8px; letter-spacing:2;"> </tspan><tspan x="195.035" y="0" style="fill:#FFFFFF; font-family:'Montserrat-Light'; font-size:8px;">adipiscing</tspan><tspan x="239.866" y="0" style="fill:#FFFFFF; font-family:'Montserrat-Light'; font-size:8px; letter-spacing:2;"> </tspan><tspan x="244.918" y="0" style="fill:#FFFFFF; font-family:'Montserrat-Light'; font-size:8px;">elit,</tspan><tspan x="260.653" y="0" style="fill:#FFFFFF; font-family:'Montserrat-Light'; font-size:8px; letter-spacing:2;"> </tspan><tspan x="265.706" y="0" style="fill:#FFFFFF; font-family:'Montserrat-Light'; font-size:8px;">sed</tspan><tspan x="280.907" y="0" style="fill:#FFFFFF; font-family:'Montserrat-Light'; font-size:8px; letter-spacing:2;"> </tspan><tspan x="285.96" y="0" style="fill:#FFFFFF; font-family:'Montserrat-Light'; font-size:8px;">do</tspan><tspan x="297.119" y="0" style="fill:#FFFFFF; font-family:'Montserrat-Light'; font-size:8px; letter-spacing:2;"> </tspan><tspan x="302.171" y="0" style="fill:#FFFFFF; font-family:'Montserrat-Light'; font-size:8px;">eiusmod </tspan><tspan x="0" y="10" style="fill:#FFFFFF; font-family:'Montserrat-Light'; font-size:8px;">tempor</tspan><tspan x="32.383" y="10" style="fill:#FFFFFF; font-family:'Montserrat-Light'; font-size:8px;"> </tspan><tspan x="34.375" y="10" style="fill:#FFFFFF; font-family:'Montserrat-Light'; font-size:8px;">incididunt</tspan><tspan x="79.183" y="10" style="fill:#FFFFFF; font-family:'Montserrat-Light'; font-size:8px;"> </tspan><tspan x="81.175" y="10" style="fill:#FFFFFF; font-family:'Montserrat-Light'; font-size:8px;">ut</tspan><tspan x="90.511" y="10" style="fill:#FFFFFF; font-family:'Montserrat-Light'; font-size:8px;"> </tspan><tspan x="92.503" y="10" style="fill:#FFFFFF; font-family:'Montserrat-Light'; font-size:8px;">labore</tspan><tspan x="119.942" y="10" style="fill:#FFFFFF; font-family:'Montserrat-Light'; font-size:8px;"> </tspan><tspan x="121.935" y="10" style="fill:#FFFFFF; font-family:'Montserrat-Light'; font-size:8px;">et</tspan><tspan x="130.694" y="10" style="fill:#FFFFFF; font-family:'Montserrat-Light'; font-size:8px;"> </tspan><tspan x="132.687" y="10" style="fill:#FFFFFF; font-family:'Montserrat-Light'; font-size:8px;">dolore</tspan><tspan x="160.422" y="10" style="fill:#FFFFFF; font-family:'Montserrat-Light'; font-size:8px;"> </tspan><tspan x="162.414" y="10" style="fill:#FFFFFF; font-family:'Montserrat-Light'; font-size:8px;">magna</tspan><tspan x="193.094" y="10" style="fill:#FFFFFF; font-family:'Montserrat-Light'; font-size:8px;"> </tspan><tspan x="195.086" y="10" style="fill:#FFFFFF; font-family:'Montserrat-Light'; font-size:8px;">aliqua.</tspan><tspan x="223.74" y="10" style="fill:#FFFFFF; font-family:'Montserrat-Light'; font-size:8px;"> </tspan><tspan x="225.732" y="10" style="fill:#FFFFFF; font-family:'Montserrat-Light'; font-size:8px;">Ut</tspan><tspan x="236.06" y="10" style="fill:#FFFFFF; font-family:'Montserrat-Light'; font-size:8px;"> </tspan><tspan x="238.052" y="10" style="fill:#FFFFFF; font-family:'Montserrat-Light'; font-size:8px;">enim</tspan><tspan x="260.41" y="10" style="fill:#FFFFFF; font-family:'Montserrat-Light'; font-size:8px;"> </tspan><tspan x="262.402" y="10" style="fill:#FFFFFF; font-family:'Montserrat-Light'; font-size:8px;">ad</tspan><tspan x="273.267" y="10" style="fill:#FFFFFF; font-family:'Montserrat-Light'; font-size:8px;"> </tspan><tspan x="275.259" y="10" style="fill:#FFFFFF; font-family:'Montserrat-Light'; font-size:8px;">minim</tspan><tspan x="303.842" y="10" style="fill:#FFFFFF; font-family:'Montserrat-Light'; font-size:8px;"> </tspan><tspan x="305.833" y="10" style="fill:#FFFFFF; font-family:'Montserrat-Light'; font-size:8px;">veniam, </tspan></text>
			</g>
		</g>
		<g>
			<g>
				<g>
					
						<text transform="matrix(1 0 0 1 271.6934 226.9043)" style="fill:#F9A62D; font-family:'BerkshireSwash-Regular'; font-size:84.553px;">Merry</text>
					<g>
						
							<text transform="matrix(1 0 0 1 256.0195 278.2485)" style="fill:#FFFFFF; font-family:'BerkshireSwash-Regular'; font-size:57.9072px;">Christmas</text>
					</g>
				</g>
				<g>
					<g>
						<g>
							<path style="fill:#A2C037;" d="M379.882,311.898l1.712,1.67c0.176,0.171,17.705,17.109,28.827,15.52l1.35-0.192l-0.47,1.279
								c-0.243,0.652-5.74,16.029,7.018,22.139l1.206,0.577l-1.067,0.805c-0.081,0.063-8.215,6.502-4.585,23.303l0.716,3.319
								l-2.142-2.634c-11.111-13.665-21.038-10.167-21.455-10.012l-1.347,0.502l0.259-1.41
								c2.582-13.931-13.591-18.664-13.755-18.713l-1.315-0.369l0.954-0.979c7.837-8.055,4.471-32.195,4.436-32.438L379.882,311.898
								z M409.403,330.809c-9.826,0.369-22.758-10.441-27.303-14.547c0.642,6.09,1.762,22.909-4.325,30.632
								c3.806,1.428,15.348,6.797,13.916,18.915c3.054-0.613,11.125-1.008,20.049,8.584c-1.9-12.639,2.756-19.015,4.824-21.158
								C405.845,347.271,408.315,334.731,409.403,330.809z"/>
						</g>
						<g>
							<path style="fill:#A2C037;" d="M376.752,306.978c13.053,15.839,27.27,51.791,27.411,52.153l-1.511,0.594
								c-0.142-0.358-14.268-36.073-27.156-51.715L376.752,306.978z"/>
						</g>
						<g>
							
								<rect x="400.805" y="341.083" transform="matrix(0.5659 -0.8245 0.8245 0.5659 -111.8416 481.8001)" style="fill:#A2C037;" width="1.625" height="12.053"/>
						</g>
						<g>
							
								<rect x="387.898" y="345.984" transform="matrix(0.2863 -0.9581 0.9581 0.2863 -51.1253 624.9581)" style="fill:#A2C037;" width="12.054" height="1.623"/>
						</g>
						<g>
							
								<rect x="382.805" y="331.585" transform="matrix(0.2027 -0.9792 0.9792 0.2027 -16.2766 644.8049)" style="fill:#A2C037;" width="10.068" height="1.625"/>
						</g>
						<g>
							
								<rect x="394.711" y="327.113" transform="matrix(0.4337 -0.9011 0.9011 0.4337 -76.1324 545.0001)" style="fill:#A2C037;" width="1.626" height="11.912"/>
						</g>
					</g>
					<g>
						<g>
							<path style="fill:#A2C037;" d="M372.408,310.408c-0.047,0.241-4.748,24.157,2.629,32.633l0.896,1.031l-1.331,0.297
								c-0.169,0.037-16.579,3.867-14.774,17.92l0.182,1.422l-1.318-0.576c-0.406-0.178-10.123-4.223-21.978,8.804l-2.282,2.513
								l0.897-3.274c4.557-16.575-3.209-23.456-3.284-23.522l-1.023-0.862l1.239-0.509c13.077-5.393,8.44-21.051,8.237-21.716
								l-0.401-1.302l1.337,0.268c11.02,2.203,29.46-13.736,29.645-13.897l1.801-1.572L372.408,310.408z M333.96,347.3
								c1.947,2.255,6.241,8.88,3.642,21.392c9.443-9.079,17.478-8.237,20.492-7.457c-0.754-12.178,11.07-16.898,14.947-18.112
								c-5.648-8.049-3.598-24.779-2.618-30.825c-4.767,3.848-18.278,13.924-28.067,13.008
								C343.224,329.283,344.996,341.94,333.96,347.3z"/>
						</g>
						<g>
							<path style="fill:#A2C037;" d="M376.28,303.323c-13.913,15.091-30.105,50.199-30.267,50.554l1.477,0.677
								c0.162-0.351,16.248-35.226,29.986-50.128L376.28,303.323z"/>
						</g>
						<g>
							
								<rect x="343.196" y="341.202" transform="matrix(0.8546 -0.5192 0.5192 0.8546 -126.8193 231.0457)" style="fill:#A2C037;" width="12.054" height="1.625"/>
						</g>
						<g>
							
								<rect x="356.108" y="336.1" transform="matrix(0.9726 -0.2327 0.2327 0.9726 -69.8085 92.4361)" style="fill:#A2C037;" width="1.625" height="12.054"/>
						</g>
						<g>
							
								<rect x="362.984" y="323.057" transform="matrix(0.989 -0.1482 0.1482 0.989 -44.6097 57.5437)" style="fill:#A2C037;" width="1.627" height="10.067"/>
						</g>
						<g>
							<polygon style="fill:#A2C037;" points="361.275,325.303 350.276,329.865 350.897,331.368 361.9,326.803 							"/>
						</g>
					</g>
					<g>
						<path style="fill:#C4182D;" d="M378.515,300.809c-0.319,5.603-5.118,9.887-10.723,9.567c-5.603-0.317-9.888-5.12-9.57-10.723
							c0.319-5.604,5.12-9.889,10.724-9.569C374.548,290.403,378.834,295.203,378.515,300.809z"/>
						<path style="fill:#C4182D;" d="M390.8,296.949c-0.321,5.604-5.121,9.888-10.726,9.569c-5.602-0.319-9.888-5.12-9.568-10.725
							c0.319-5.603,5.119-9.888,10.723-9.568C386.834,286.545,391.117,291.346,390.8,296.949z"/>
						<path style="fill:#E72837;" d="M385.579,306.832c-0.319,5.603-5.121,9.887-10.723,9.568c-5.604-0.318-9.888-5.12-9.569-10.724
							c0.317-5.604,5.119-9.888,10.722-9.569C381.613,296.427,385.898,301.228,385.579,306.832z"/>
					</g>
				</g>
			</g>
			<path style="opacity:0.5;fill:#FFFFFF;" d="M357.373,226.182c-0.404-0.154-0.79-0.339-1.179-0.521l7.269-7.269
				c0.386,0.38,0.787,0.744,1.218,1.081c0.95,0.743,2.003,1.336,3.159,1.775c1.155,0.441,2.421,0.661,3.798,0.661
				c0.963,0,1.857-0.11,2.684-0.331c0.825-0.22,1.596-0.521,2.312-0.908c0.716-0.385,1.404-0.832,2.064-1.342
				c0.661-0.509,1.32-1.053,1.981-1.631l1.032,0.991c-0.633,0.854-1.445,1.79-2.436,2.808c-0.99,1.019-2.188,1.975-3.592,2.869
				c-1.404,0.895-3.041,1.639-4.913,2.229c-1.872,0.592-4.005,0.888-6.399,0.888S359.644,227.049,357.373,226.182z M362.287,184.689
				c-1.666,0.428-3.297,1.059-4.894,1.899c-1.597,0.84-3.116,1.893-4.562,3.158c-1.445,1.267-2.711,2.739-3.799,4.418
				c-1.087,1.679-1.947,3.565-2.58,5.656c-0.576,1.904-0.877,3.988-0.929,6.234l15.066-15.066c0.412-0.73,0.905-1.349,1.489-1.841
				c0.274-0.231,0.577-0.403,0.896-0.545l4.541-4.542c-0.142-0.002-0.275-0.012-0.422-0.012
				C365.555,184.05,363.951,184.264,362.287,184.689z M387.781,223.189c0,0.303,0.054,0.701,0.164,1.196
				c0.109,0.495,0.386,0.978,0.826,1.445c0.439,0.469,1.079,0.874,1.919,1.218c0.84,0.344,1.988,0.517,3.448,0.517
				c1.458,0,2.607-0.159,3.447-0.476c0.839-0.316,1.472-0.694,1.898-1.135c0.427-0.439,0.695-0.908,0.805-1.404
				c0.11-0.495,0.166-0.922,0.166-1.279v-26.795c0.578-0.495,1.218-1.018,1.92-1.568c0.701-0.551,1.445-1.06,2.229-1.527
				c0.784-0.468,1.589-0.86,2.415-1.177c0.825-0.316,1.665-0.476,2.519-0.476c1.156,0,2.036,0.283,2.642,0.848
				c0.605,0.564,0.991,1.272,1.156,2.126h1.156c0.439-1.239,0.735-2.292,0.888-3.159c0.151-0.866,0.227-1.769,0.227-2.704
				c0-1.514-0.399-2.69-1.196-3.53c-0.799-0.839-1.9-1.259-3.303-1.259c-0.661,0-1.322,0.124-1.982,0.372
				c-0.661,0.247-1.301,0.578-1.92,0.99c-0.619,0.413-1.218,0.881-1.796,1.404c-0.578,0.522-1.115,1.06-1.61,1.609
				c-1.184,1.294-2.299,2.74-3.344,4.336c0-0.413-0.015-0.916-0.042-1.508c-0.026-0.591-0.116-1.211-0.268-1.857
				c-0.152-0.646-0.379-1.287-0.681-1.92c-0.305-0.633-0.724-1.204-1.26-1.714c-0.35-0.331-0.77-0.616-1.246-0.866l-9.178,9.178
				V223.189z M335.967,212.516c-0.221-2.049-0.461-4.341-0.723-6.873c-0.262-2.532-0.53-5.174-0.805-7.928
				c-0.275-2.751-0.543-5.545-0.806-8.381c-0.262-2.834-0.509-5.579-0.743-8.236c-0.233-2.655-0.447-5.146-0.64-7.473
				c-0.192-2.325-0.345-4.355-0.454-6.089c-0.109-1.514-0.027-2.904,0.248-4.17c0.275-1.266,0.66-2.395,1.156-3.386
				c0.495-0.991,1.073-1.858,1.733-2.602c0.661-0.743,1.327-1.362,2.002-1.857s1.328-0.867,1.962-1.115
				c0.633-0.247,1.17-0.371,1.61-0.371c0.743,0,1.308,0.2,1.692,0.599c0.385,0.399,0.709,0.833,0.971,1.301
				c0.261,0.468,0.529,0.901,0.805,1.3c0.275,0.399,0.674,0.6,1.197,0.6c0.633,0,1.128-0.358,1.486-1.074
				c0.357-0.715,0.536-1.624,0.536-2.725c0-1.238-0.454-2.167-1.361-2.787c-0.909-0.619-2.093-0.929-3.551-0.929
				c-1.707,0-3.353,0.345-4.935,1.032c-1.582,0.688-3.179,1.782-4.788,3.282c-1.61,1.501-3.276,3.434-4.996,5.801
				c-1.72,2.367-3.571,5.229-5.553,8.587c-1.982,3.358-4.136,7.246-6.462,11.664c-2.326,4.417-4.906,9.42-7.741,15.007
				l-10.899-22.129c-0.242-0.497-0.5-0.979-0.764-1.454l-14.512,14.512c0,0.003,0,0.006,0,0.009
				c-0.109,1.913-0.233,3.93-0.371,6.049c-0.11,1.459-0.214,2.842-0.31,4.149c-0.097,1.308-0.2,2.594-0.31,3.859
				c-0.109,1.267-0.22,2.539-0.329,3.82c-0.111,1.279-0.222,2.607-0.33,3.982c-0.248,2.479-0.62,4.693-1.115,6.648
				c-0.496,1.954-1.212,3.619-2.147,4.994c-0.936,1.377-2.126,2.431-3.57,3.159c-1.445,0.729-3.228,1.094-5.347,1.094
				c-1.074,0-1.969-0.15-2.685-0.454c-0.716-0.303-1.327-0.681-1.837-1.135c-0.51-0.455-0.922-0.942-1.238-1.466
				c-0.316-0.523-0.599-1.012-0.847-1.466c-0.247-0.454-0.488-0.832-0.722-1.135c-0.234-0.303-0.503-0.455-0.805-0.455
				c-0.496,0-0.943,0.132-1.342,0.393c-0.399,0.262-0.736,0.605-1.013,1.032c-0.274,0.427-0.48,0.895-0.618,1.403
				c-0.139,0.51-0.207,1.012-0.207,1.508c0,0.66,0.297,1.273,0.888,1.836c0.592,0.564,1.383,1.054,2.374,1.467
				c0.991,0.412,2.133,0.736,3.427,0.97c1.293,0.233,2.642,0.351,4.046,0.351c3.191,0,5.855-0.453,7.988-1.361
				c2.133-0.909,3.867-2.168,5.202-3.778c1.335-1.61,2.353-3.516,3.056-5.718c0.701-2.202,1.217-4.59,1.548-7.164
				c0.33-2.572,0.558-5.283,0.682-8.133c0.124-2.849,0.268-5.718,0.433-8.607l0.537-9.95l14.863,29.602h4.046
				c1.073-2.479,2.057-4.721,2.952-6.73c0.894-2.009,1.719-3.854,2.477-5.532c0.757-1.679,1.479-3.233,2.168-4.665
				c0.688-1.432,1.362-2.801,2.023-4.108c0.659-1.307,1.342-2.587,2.043-3.84c0.701-1.252,1.466-2.552,2.291-3.901
				c0.109,1.515,0.248,3.29,0.413,5.326c0.165,2.037,0.351,4.205,0.558,6.502c0.207,2.299,0.434,4.652,0.681,7.061
				c0.248,2.408,0.502,4.748,0.764,7.019c0.262,2.271,0.53,4.397,0.806,6.379c0.274,1.981,0.536,3.675,0.784,5.077
				c0.109,0.635,0.269,1.342,0.476,2.127c0.206,0.785,0.604,1.527,1.196,2.229c0.19,0.226,0.417,0.437,0.661,0.64L336.28,215.3
				C336.18,214.447,336.075,213.521,335.967,212.516z M443.365,184.231c-0.225,0.056-0.449,0.105-0.675,0.191
				c-0.66,0.247-1.3,0.578-1.919,0.99c-0.62,0.413-1.219,0.881-1.797,1.404c-0.578,0.522-1.114,1.06-1.61,1.609
				c-1.183,1.294-2.298,2.74-3.344,4.336c0-0.413-0.014-0.916-0.041-1.508c-0.027-0.591-0.117-1.211-0.269-1.857
				c-0.151-0.646-0.379-1.287-0.681-1.92c-0.304-0.633-0.724-1.204-1.26-1.714c-0.536-0.509-1.225-0.921-2.064-1.238
				c-0.841-0.316-1.852-0.475-3.035-0.475c-1.156,0-2.258,0.124-3.303,0.372c-1.047,0.247-2.022,0.564-2.932,0.949
				c-0.908,0.386-1.754,0.833-2.539,1.342c-0.784,0.51-1.493,1.025-2.126,1.548l0.867,1.032c0.385-0.303,0.743-0.536,1.073-0.701
				c0.33-0.166,0.729-0.248,1.197-0.248c0.881,0,1.507,0.296,1.879,0.888c0.371,0.592,0.558,1.287,0.558,2.085v14.935
				L443.365,184.231z M470.518,201.927c-0.937-2.614-1.865-4.982-2.787-7.101c-0.9-2.069-1.767-3.845-2.602-5.338l-9.287,9.287
				c0.758,1.759,1.527,3.66,2.311,5.732c1.169,3.096,2.313,6.31,3.426,9.64c0.639,1.905,1.252,3.802,1.854,5.692l9.797-9.796
				C472.319,207.145,471.414,204.435,470.518,201.927z M431.152,227.09c0.839-0.316,1.471-0.694,1.898-1.135
				c0.426-0.439,0.695-0.908,0.805-1.404c0.109-0.495,0.165-0.922,0.165-1.279v-2.675l-6.948,6.948
				c0.207,0.009,0.41,0.02,0.632,0.02C429.162,227.565,430.313,227.406,431.152,227.09z M487.086,196.186
				c0.141-1.862,0.234-3.742,0.234-5.654c0-0.991-0.015-1.886-0.041-2.684c-0.027-0.798-0.139-1.479-0.331-2.043
				c-0.192-0.564-0.488-0.998-0.888-1.301c-0.398-0.303-0.97-0.454-1.713-0.454c-0.33,0-0.736,0.034-1.218,0.104
				c-0.482,0.068-0.957,0.186-1.424,0.351c-0.469,0.165-0.867,0.393-1.198,0.681c-0.33,0.289-0.495,0.641-0.495,1.054
				s0.096,0.887,0.289,1.424c0.192,0.537,0.413,1.184,0.661,1.94c0.247,0.758,0.467,1.673,0.66,2.746
				c0.192,1.073,0.289,2.367,0.289,3.881c0,1.839-0.117,3.651-0.314,5.445L487.086,196.186z M445.291,237.391
				c-0.439,0-0.852,0.117-1.238,0.352c-0.385,0.233-0.715,0.543-0.99,0.929s-0.496,0.826-0.661,1.321
				c-0.118,0.355-0.179,0.722-0.212,1.092l3.593-3.594C445.628,237.432,445.467,237.391,445.291,237.391z"/>
			<g>
				<path style="fill:#FFFFFF;" d="M375.741,128.511c33.462,0,63.837,13.457,86.011,35.236h3.808
					c-22.812-23.388-54.646-37.936-89.818-37.936c-24.064,0-46.563,6.812-65.681,18.601c2.258-0.295,4.52-0.569,6.782-0.831
					C334.34,133.98,354.413,128.511,375.741,128.511z"/>
				<path style="fill:#FFFFFF;" d="M500.878,241.552c-0.435-5.596-1.239-11.09-2.385-16.458c-0.808,0.507-1.623,1-2.449,1.482
					c1.031,5.01,1.757,10.129,2.157,15.338C499.093,241.793,499.984,241.668,500.878,241.552z"/>
				<path style="fill:#FFFFFF;" d="M320.238,363.882c0.291-0.854,0.583-1.71,0.883-2.563
					c-24.188-12.061-43.863-31.869-55.756-56.155c-1.008-0.008-2.015-0.02-3.016-0.038
					C274.486,330.607,294.972,351.369,320.238,363.882z"/>
				<path style="fill:#FFFFFF;" d="M429.114,364.904c28.708-13.547,51.497-37.646,63.298-67.283c-0.98,0.018-1.96,0.037-2.94,0.061
					c-11.645,28.467-33.684,51.607-61.363,64.715C428.445,363.232,428.782,364.067,429.114,364.904z"/>
				<path style="fill:#FFFFFF;" d="M379.302,374.094c-1.184,0.035-2.369,0.057-3.561,0.057c-6.022,0-11.944-0.438-17.737-1.278
					c-0.299,0.863-0.586,1.73-0.878,2.597c6.075,0.907,12.291,1.381,18.615,1.381c1.333,0,2.661-0.023,3.984-0.067
					C379.58,375.887,379.44,374.991,379.302,374.094z"/>
			</g>
		</g>
		<g>
			<g>
				<rect x="192.959" style="fill:#FFFFFF;" width="1.069" height="217.985"/>
				<g>
					<g>
						<path style="fill:#F9A62D;" d="M202.414,227.617l-1.251-0.404c-2.149-0.691-4.591-1.043-7.263-1.043
							c-4.567,0-8.248,1.042-8.284,1.053l-1.223,0.352V217.14h18.021V227.617z M186.309,219.056v6.024
							c1.521-0.334,4.318-0.826,7.592-0.826c2.371,0,4.583,0.262,6.598,0.775v-5.974H186.309z"/>
					</g>
					<g>
						<path style="fill:#F9A62D;" d="M193.404,282.861c-16.131,0-29.254-13.123-29.254-29.253s13.123-29.251,29.254-29.251
							s29.254,13.121,29.254,29.251S209.535,282.861,193.404,282.861z M193.404,226.273c-15.074,0-27.339,12.262-27.339,27.335
							c0,15.075,12.265,27.337,27.339,27.337c15.075,0,27.337-12.262,27.337-27.337
							C220.741,238.535,208.479,226.273,193.404,226.273z"/>
					</g>
					<g>
						<g>
							<path style="fill:#FFFFFF;" d="M219.237,241.824c-0.07-0.002-0.132-0.018-0.201-0.018c-3.143,0-4.698,2.256-6.069,4.246
								c-1.263,1.834-2.355,3.417-4.492,3.417c-2.134,0-3.224-1.583-4.486-3.417c-1.37-1.99-2.923-4.246-6.065-4.246
								c-3.143,0-4.696,2.256-6.067,4.246c-1.263,1.834-2.354,3.417-4.49,3.417c-2.133,0-3.224-1.583-4.487-3.417
								c-1.369-1.99-2.923-4.246-6.065-4.246c-3.14,0-4.692,2.256-6.062,4.246c-1.263,1.834-2.352,3.417-4.486,3.417
								c-0.178,0-0.341-0.02-0.504-0.044c-0.053,0.389-0.082,0.779-0.052,1.162c0.021,0.26,0.044,0.514,0.062,0.764
								c0.159,0.018,0.32,0.033,0.493,0.033c3.142,0,4.693-2.256,6.065-4.246c1.261-1.833,2.352-3.418,4.483-3.418
								c2.136,0,3.227,1.585,4.488,3.418c1.37,1.99,2.924,4.246,6.064,4.246c3.144,0,4.697-2.256,6.066-4.245
								c1.264-1.834,2.354-3.419,4.491-3.419c2.135,0,3.225,1.585,4.489,3.419c1.369,1.989,2.922,4.245,6.063,4.245
								c3.145,0,4.698-2.256,6.069-4.245c1.266-1.834,2.355-3.419,4.492-3.419c0.376,0,0.712,0.065,1.03,0.156
								C219.797,243.198,219.52,242.512,219.237,241.824z"/>
						</g>
					</g>
					<g>
						<g>
							<path style="fill:#FFFFFF;" d="M219.036,258.33c-3.143,0-4.698,2.256-6.069,4.246c-1.263,1.834-2.355,3.418-4.492,3.418
								c-2.134,0-3.224-1.584-4.486-3.418c-1.37-1.99-2.923-4.246-6.065-4.246c-3.143,0-4.696,2.256-6.067,4.246
								c-1.263,1.834-2.354,3.418-4.49,3.418c-2.133,0-3.224-1.584-4.487-3.418c-1.369-1.99-2.923-4.246-6.065-4.246
								c-3.14,0-4.692,2.256-6.062,4.246c-0.782,1.139-1.5,2.178-2.441,2.805c0.373,0.516,0.748,1.029,1.114,1.548
								c1.22-0.841,2.1-2.093,2.906-3.265c1.261-1.834,2.352-3.418,4.483-3.418c2.136,0,3.227,1.584,4.488,3.418
								c1.37,1.99,2.924,4.246,6.064,4.246c3.144,0,4.697-2.256,6.066-4.246c1.264-1.834,2.354-3.418,4.491-3.418
								c2.135,0,3.225,1.584,4.489,3.418c1.369,1.99,2.922,4.246,6.063,4.246c3.145,0,4.698-2.256,6.069-4.246
								c1.266-1.834,2.355-3.418,4.492-3.418c0.566,0,1.055,0.117,1.496,0.314c0.188-0.619,0.341-1.246,0.454-1.885
								C220.409,258.463,219.769,258.33,219.036,258.33z"/>
						</g>
					</g>
				</g>
			</g>
			<g>
				<rect x="151.667" style="fill:#FFFFFF;" width="1.069" height="82.818"/>
				<g>
					<g>
						<g>
							<path style="fill:#A2C037;" d="M162.935,93.786l-1.43-0.461c-2.454-0.791-5.246-1.192-8.297-1.192
								c-5.219,0-9.427,1.191-9.468,1.203l-1.396,0.4V81.813h20.591V93.786z M144.532,84.003v6.886
								c1.739-0.383,4.935-0.944,8.676-0.944c2.707,0,5.235,0.297,7.538,0.885v-6.826H144.532z"/>
						</g>
						<g>
							<path style="fill:#A2C037;" d="M152.641,156.913c-18.433,0-33.428-14.995-33.428-33.427
								c0-18.431,14.995-33.425,33.428-33.425s33.428,14.994,33.428,33.425C186.068,141.918,171.073,156.913,152.641,156.913z
								 M152.641,92.25c-17.226,0-31.239,14.013-31.239,31.236c0,17.225,14.014,31.237,31.239,31.237
								c17.225,0,31.237-14.013,31.237-31.237C183.878,106.263,169.865,92.25,152.641,92.25z"/>
						</g>
					</g>
					<g>
						<path style="fill:#A2C037;" d="M171.429,96.768c-0.425-0.18-0.859-0.341-1.314-0.46c-0.05-0.014-0.092-0.035-0.139-0.052
							c-11.394,4.279-26.863,8.456-43.553,8.326c-1.676,1.563-2.835,3.355-3.6,5.396c1.552,0.07,3.096,0.117,4.625,0.117
							c19.136,0,36.402-5.266,48.254-10.114C174.373,98.825,172.702,97.971,171.429,96.768z"/>
					</g>
					<g>
						<path style="fill:#A2C037;" d="M183.797,130.417c-9.653,4.858-31.453,14.233-56.091,14.364
							c1.108,1.145,2.299,2.243,3.425,3.35c0.705,0.691,1.435,1.347,2.19,1.97c21.048-1.156,39.274-8.212,49.608-13.118
							c0.331-0.6,0.61-1.229,0.826-1.907C183.977,133.537,183.845,131.968,183.797,130.417z"/>
					</g>
					<g>
						<path style="fill:#FFFFFF;" d="M183.329,114.286c-0.403-1.047-0.788-2.099-1.179-3.149
							c-11.422,5.546-35.591,15.228-61.86,13.298c0.421,1.681,0.682,3.396,1.033,5.092c0.033,0.16,0.066,0.314,0.101,0.47
							c2.024,0.12,4.038,0.192,6.025,0.192c24.354,0,45.686-8.525,56.664-13.868C183.877,115.642,183.592,114.972,183.329,114.286z"
							/>
					</g>
				</g>
			</g>
			<g>
				<rect x="255.957" style="fill:#FFFFFF;" width="1.069" height="36.939"/>
				<g>
					<g>
						<g>
							<g>
								<path style="fill:#F9A62D;" d="M264.412,44.788l-1.101-0.354c-1.889-0.608-4.035-0.917-6.383-0.917
									c-4.015,0-7.25,0.916-7.283,0.925l-1.074,0.309v-9.172h15.841V44.788z M250.255,37.262v5.297
									c1.338-0.294,3.798-0.727,6.674-0.727c2.083,0,4.028,0.229,5.799,0.681v-5.251H250.255z"/>
							</g>
							<g>
								<path style="fill:#F9A62D;" d="M256.492,93.348c-14.179,0-25.714-11.535-25.714-25.713
									c0-14.178,11.535-25.712,25.714-25.712c14.179,0,25.714,11.534,25.714,25.712C282.206,81.813,270.671,93.348,256.492,93.348
									z M256.492,43.606c-13.251,0-24.029,10.779-24.029,24.028c0,13.249,10.778,24.029,24.029,24.029
									c13.251,0,24.029-10.78,24.029-24.029C280.521,54.386,269.743,43.606,256.492,43.606z"/>
							</g>
						</g>
					</g>
					<g>
						<path style="fill:#FFFFFF;" d="M256.492,54.804c2.189,0,4.185,7.695,4.185,7.695s7.937-0.479,8.613,1.604
							c0.676,2.083-6.024,6.359-6.024,6.359s2.907,7.398,1.135,8.687c-1.771,1.288-7.909-3.766-7.909-3.766
							s-6.138,5.054-7.909,3.766c-1.773-1.288,1.136-8.687,1.136-8.687s-6.701-4.276-6.025-6.359
							c0.676-2.083,8.612-1.604,8.612-1.604S254.303,54.804,256.492,54.804z"/>
					</g>
				</g>
			</g>
			<g>
				<rect x="515.2" style="fill:#FFFFFF;" width="1.069" height="56.602"/>
				<g>
					<g>
						<path style="fill:#F9A62D;" d="M527.282,67.573l-1.604-0.517c-2.754-0.887-5.883-1.337-9.307-1.337
							c-5.853,0-10.569,1.335-10.616,1.349l-1.566,0.45V54.146h23.093V67.573z M506.644,56.602v7.721
							c1.95-0.428,5.534-1.059,9.728-1.059c3.038,0,5.873,0.334,8.454,0.993v-7.655H506.644z"/>
					</g>
					<g>
						<path style="fill:#F9A62D;" d="M515.736,138.366c-20.671,0-37.487-16.816-37.487-37.486c0-20.669,16.816-37.484,37.487-37.484
							c20.671,0,37.487,16.815,37.487,37.484C553.224,121.55,536.407,138.366,515.736,138.366z M515.736,65.851
							c-19.317,0-35.033,15.714-35.033,35.029c0,19.317,15.716,35.031,35.033,35.031c19.318,0,35.031-15.714,35.031-35.031
							C550.768,81.564,535.055,65.851,515.736,65.851z"/>
					</g>
					<g>
						<g>
							<path style="fill:#FFFFFF;" d="M548.84,85.778c-0.09-0.002-0.168-0.022-0.258-0.022c-4.028,0-6.019,2.891-7.777,5.441
								c-1.618,2.35-3.018,4.379-5.756,4.379c-2.734,0-4.132-2.029-5.749-4.379c-1.757-2.551-3.746-5.441-7.773-5.441
								c-4.027,0-6.019,2.891-7.775,5.441c-1.617,2.35-3.017,4.379-5.753,4.379c-2.734,0-4.132-2.029-5.751-4.379
								c-1.754-2.551-3.746-5.441-7.772-5.441c-4.023,0-6.013,2.891-7.769,5.441c-1.618,2.35-3.014,4.379-5.749,4.379
								c-0.229,0-0.438-0.025-0.647-0.058c-0.067,0.499-0.104,1-0.065,1.49c0.027,0.333,0.056,0.658,0.079,0.979
								c0.205,0.022,0.411,0.042,0.633,0.042c4.025,0,6.015-2.891,7.772-5.441c1.615-2.349,3.013-4.379,5.745-4.379
								c2.737,0,4.135,2.03,5.752,4.379c1.755,2.551,3.746,5.441,7.771,5.441c4.027,0,6.019-2.891,7.773-5.44
								c1.619-2.35,3.017-4.38,5.755-4.38c2.735,0,4.134,2.03,5.753,4.38c1.755,2.55,3.744,5.44,7.77,5.44
								c4.029,0,6.02-2.891,7.777-5.44c1.621-2.35,3.018-4.38,5.756-4.38c0.483,0,0.912,0.083,1.321,0.2
								C549.557,87.539,549.203,86.659,548.84,85.778z"/>
						</g>
					</g>
					<g>
						<g>
							<path style="fill:#FFFFFF;" d="M548.582,106.931c-4.028,0-6.019,2.891-7.777,5.441c-1.618,2.35-3.018,4.379-5.756,4.379
								c-2.734,0-4.132-2.028-5.749-4.379c-1.757-2.551-3.746-5.441-7.773-5.441c-4.027,0-6.019,2.891-7.775,5.441
								c-1.617,2.351-3.017,4.379-5.753,4.379c-2.734,0-4.132-2.028-5.751-4.379c-1.754-2.551-3.746-5.441-7.772-5.441
								c-4.023,0-6.013,2.891-7.769,5.441c-1.003,1.458-1.923,2.789-3.129,3.593c0.479,0.661,0.959,1.319,1.428,1.984
								c1.563-1.078,2.69-2.683,3.725-4.185c1.615-2.35,3.013-4.379,5.745-4.379c2.737,0,4.135,2.029,5.752,4.379
								c1.755,2.551,3.746,5.441,7.771,5.441c4.027,0,6.019-2.891,7.773-5.44c1.619-2.35,3.017-4.38,5.755-4.38
								c2.735,0,4.134,2.03,5.753,4.38c1.755,2.55,3.744,5.44,7.77,5.44c4.029,0,6.02-2.891,7.777-5.44
								c1.621-2.35,3.018-4.38,5.756-4.38c0.726,0,1.352,0.15,1.918,0.403c0.24-0.793,0.437-1.598,0.582-2.415
								C550.342,107.1,549.521,106.931,548.582,106.931z"/>
						</g>
					</g>
				</g>
			</g>
			<g>
				<rect x="566.933" style="fill:#FFFFFF;" width="1.069" height="249.693"/>
				<g>
					<g>
						<g>
							<g>
								<path style="fill:#E72837;" d="M575.387,257.826l-1.101-0.354c-1.889-0.608-4.035-0.917-6.383-0.917
									c-4.015,0-7.25,0.916-7.283,0.925l-1.074,0.309v-9.172h15.841V257.826z M561.229,250.301v5.296
									c1.338-0.294,3.798-0.727,6.674-0.727c2.083,0,4.028,0.229,5.799,0.681v-5.25H561.229z"/>
							</g>
							<g>
								<path style="fill:#E72837;" d="M567.467,306.386c-14.179,0-25.714-11.534-25.714-25.713
									c0-14.178,11.535-25.712,25.714-25.712s25.714,11.534,25.714,25.712C593.181,294.852,581.646,306.386,567.467,306.386z
									 M567.467,256.645c-13.251,0-24.029,10.779-24.029,24.028c0,13.249,10.778,24.029,24.029,24.029s24.029-10.78,24.029-24.029
									C591.496,267.424,580.718,256.645,567.467,256.645z"/>
							</g>
						</g>
					</g>
					<g>
						<path style="fill:#FFFFFF;" d="M567.467,267.842c2.19,0,4.185,7.695,4.185,7.695s7.937-0.479,8.613,1.603
							c0.676,2.083-6.024,6.359-6.024,6.359s2.907,7.398,1.135,8.686c-1.771,1.288-7.909-3.766-7.909-3.766
							s-6.138,5.054-7.909,3.766c-1.772-1.288,1.136-8.686,1.136-8.686s-6.701-4.276-6.025-6.359
							c0.676-2.082,8.612-1.603,8.612-1.603S565.277,267.842,567.467,267.842z"/>
					</g>
				</g>
			</g>
			<rect x="304.433" style="fill:#FFFFFF;" width="1.069" height="106.931"/>
			<rect x="373.89" style="fill:#FFFFFF;" width="1.069" height="53.466"/>
			<rect x="611.134" style="fill:#FFFFFF;" width="1.069" height="136.835"/>
			<rect x="107.134" style="fill:#FFFFFF;" width="1.069" height="212.693"/>
			<rect x="665.668" style="fill:#FFFFFF;" width="1.069" height="74.448"/>
		</g>
	</g>
</g>
<g id="OBJECTS">
</g>
</svg>
